<?xml version="1.0" standalone="no"?>
<!DOCTYPE svg PUBLIC "-//W3C//DTD SVG 1.1//EN" "http://www.w3.org/Graphics/SVG/1.1/DTD/svg11.dtd" >
<svg xmlns="http://www.w3.org/2000/svg">
<metadata></metadata>
<defs>
<font id="blessed_dayregular" horiz-adv-x="2441" >
<font-face units-per-em="2048" ascent="1638" descent="-410" />
<missing-glyph horiz-adv-x="339" />
<glyph horiz-adv-x="0" />
<glyph unicode="&#xd;" horiz-adv-x="339" />
<glyph unicode=" "  horiz-adv-x="339" />
<glyph unicode="&#x09;" horiz-adv-x="339" />
<glyph unicode="&#xa0;" horiz-adv-x="339" />
<glyph unicode="(" horiz-adv-x="208" d="M-2560 -129q10 37 59 100q53 68 56 125q4 43 -2 66q8 4 20 8t33 8q276 61 625 62q127 0 249 -7q45 -2 194.5 -16t407.5 -43q106 -10 200.5 -16t178.5 -6q438 0 617 184q68 70 67 104q0 18 -18 29q-12 6 -43 -7t-45 -28q-29 -29 -41 -8l-10 16q-6 16 12 35q66 59 127 60 q82 0 82 -88q0 -74 -113 -189q-170 -178 -420 -225q-72 -14 -163 -20.5t-201 -6.5q-63 0 -138 2t-163 6l-260 13q-391 8 -602 -6q-168 -12 -302.5 -33t-236.5 -49q-94 -27 -170 -70z" />
<glyph unicode=")" horiz-adv-x="208" d="M-2560 -129q10 37 59 100q53 68 56 125q4 43 -2 66q8 4 20 8t33 8q276 61 625 62q127 0 249 -7q45 -2 194.5 -16t407.5 -43q106 -10 200.5 -16t178.5 -6q438 0 617 184q68 70 67 104q0 18 -18 29q-12 6 -43 -7t-45 -28q-29 -29 -41 -8l-10 16q-6 16 12 35q66 59 127 60 q82 0 82 -88q0 -74 -113 -189q-170 -178 -420 -225q-72 -14 -163 -20.5t-201 -6.5q-63 0 -138 2t-163 6l-260 13q-391 8 -602 -6q-168 -12 -302.5 -33t-236.5 -49q-94 -27 -170 -70z" />
<glyph unicode="0" d="M0 375l14 22h62q72 0 71 -75q0 -39 -28 -56q35 -12 35 -65q0 -78 -64 -78h-76v233zM14 2v57h15v-22h43v22h12v-57h-12v25h-43v-25h-15zM59 164h17q33 0 33 39q0 43 -33 43h-17v-82zM59 285h17q29 0 28 37q0 35 -28 34h-17v-71zM102 49v10h68v-10h-27v-47h-14v47h-27z M176 49v10h68v-10h-29v-47h-12v47h-27zM188 123v274h43v-274l-22 -14zM260 2v57h51q14 0 15 -12v-12q0 -10 -15 -10h-37v-23h-14zM268 123v274l19 17l22 -17v-233h72v-41h-113zM274 35h31q6 0 6 4v6q0 4 -6 4h-31v-14zM344 4v19h21v-21h-19zM344 39v18q2 2 6 2h10q2 0 5 -2 v-18h-21zM373 0l35 74h8l-35 -74h-8zM410 0l34 74h9l-35 -74h-8zM410 123v274l18 17l23 -17v-233h71v-41h-112zM463 2v57h51q12 0 12 -12v-6q0 -6 -10 -10q10 -4 10 -11v-8q0 -10 -16 -10h-47zM475 12h33q6 0 6 4v7q0 4 -6 4h-33v-15zM475 37h33q6 0 6 4v4q0 4 -6 4h-33v-12 zM500 397h45l30 -98l31 98h45l-55 -159v-115h-41v115zM551 2v57h12v-57h-12zM561 1198l426 47l180 393l174 -391l431 -49l-318 -287l88 -424l-373 213l-376 -213l88 418zM590 2v57h12v-47h45v-10h-57zM662 2v57h14v-47h45v-10h-59zM709 123l45 274h57l47 -274l-22 -12 l-23 12l-8 63h-43l-10 -63l-23 -12zM713 59h18l19 -22l20 22h16l-30 -30v-27h-13v25zM768 227h31l-17 107zM784 2l33 57h14l33 -57h-14l-8 12h-37l-6 -12h-15zM811 25h27l-15 24zM879 2v57h51q12 0 12 -12v-12q0 -12 -12 -12h-8l26 -21h-18l-25 21h-12v-21h-14zM879 377 l14 20h63q66 0 66 -65v-39q0 -31 -23 -49l31 -121h-45l-24 104h-27v-104h-41v235zM893 33h31q6 0 6 4v8q0 4 -6 4h-31v-16zM934 268h24q23 0 23 23v41q0 23 -23 22h-24v-86zM965 16v29q0 14 14 14h41q14 0 14 -14l-14 -2v4h-43v-35h43v13h-23v10h37v-19q0 -14 -14 -14h-41 q-14 0 -14 14zM1004 727l47 -29l45 29l22 135h92l21 -135l49 -29l45 29l-98 592h-123zM1057 2v57h61v-10h-47v-12h27v-10h-27v-15h47v-10h-61zM1059 184v150q0 68 65 67q66 0 66 -67v-31h-43v33q0 25 -23 24q-25 0 -24 -24v-150q0 -25 24 -24q23 0 23 24v54h-23l-16 18 l16 23h66v-97q0 -65 -66 -65t-65 65zM1130 950l33 234l35 -234h-68zM1139 2v57h14v-47h43v-10h-57zM1210 6v12q0 2 2 5h19v-21h-17q-4 0 -4 4zM1212 377l15 20h116v-41h-75v-75h55v-41h-55v-76h75v-41h-116v233zM1255 2v57h52q12 0 12 -12v-6q0 -8 -8 -10q10 -4 10 -11v-8 q0 -10 -18 -10h-48zM1270 12h30q6 0 7 4v7q0 4 -7 4h-30v-15zM1270 37h30q6 0 7 4v4q0 4 -7 4h-30v-12zM1343 2v57h15v-47h43v-10h-58zM1372 123v274l21 17l20 -17v-233h72v-41h-113zM1415 16v29q0 14 15 14h45q14 0 14 -14v-29q0 -14 -14 -14h-45q-14 0 -15 14zM1430 12h45 v35h-45v-35zM1511 16v29q0 14 15 14h41q14 0 14 -14l-14 -2v4h-43v-35h43v13h-23v10h37v-19q0 -14 -14 -14h-41q-14 0 -15 14zM1528 377l14 20h117v-41h-76v-75h55v-41h-55v-117h-41v233zM1604 16l10 2v-6h43v13h-37q-14 0 -14 14v6q0 14 14 14h33q14 0 14 -12v-2l-10 -2v6 h-39v-12h37q14 0 14 -14v-7q0 -14 -14 -14h-37q-14 0 -14 14zM1688 186v150q-1 65 65 65t66 -65v-150q0 -66 -66 -65q-66 0 -65 65zM1692 2v57h51q14 0 14 -12v-12q0 -10 -14 -10h-37v-23h-14zM1706 35h31q6 0 6 4v6q0 4 -6 4h-31v-14zM1729 186q0 -25 24 -24q23 0 23 24 v150q0 25 -23 24q-25 0 -24 -24v-150zM1776 16v29q0 14 14 14h43q14 0 14 -14v-29q0 -14 -14 -14h-43q-14 0 -14 14zM1788 12h45v35h-45v-35zM1841 377l14 20h48l53 -184v184h43v-274h-45l-58 176v-176h-41v235zM1864 49v10h67v-10h-26v-47h-15v47h-26zM1950 4v19h18 q2 -2 2 -5v-12q0 -2 -2 -4h-16q-2 0 -2 2zM1993 16v29q0 14 14 14h35q14 0 14 -14v-6l-12 -2v10h-37v-35h37v13l12 -2v-7q0 -14 -14 -14h-35q-14 0 -14 14zM2032 356v41h129v-41h-45v-233l-21 -14l-20 14v233h-43zM2079 16v29q0 14 14 14h43q14 0 14 -14v-29q0 -14 -14 -14 h-43q-14 0 -14 14zM2091 12h47v35h-47v-35zM2175 2v57h10l29 -34l27 34h10v-57h-13v39l-24 -33h-2l-27 33v-39h-10zM2189 199l17 14l22 -12q2 -43 29 -43q27 2 27 32q0 18 -33 54q-25 23 -47 47q-10 25 -11 41q0 70 64 69q63 0 65 -63l-38 -8q-4 35 -27 35q-20 0 -21 -31 q0 -20 54 -74q34 -34 34 -67q4 -72 -65 -72q-66 0 -70 78zM2261 0l35 74h8l-35 -74h-8z" />
<glyph unicode="1" d="M0 375l14 22h62q72 0 71 -75q0 -39 -28 -56q35 -12 35 -65q0 -78 -64 -78h-76v233zM14 2v57h15v-22h43v22h12v-57h-12v25h-43v-25h-15zM59 164h17q33 0 33 39q0 43 -33 43h-17v-82zM59 285h17q29 0 28 37q0 35 -28 34h-17v-71zM102 49v10h68v-10h-27v-47h-14v47h-27z M176 49v10h68v-10h-29v-47h-12v47h-27zM188 123v274h43v-274l-22 -14zM260 2v57h51q14 0 15 -12v-12q0 -10 -15 -10h-37v-23h-14zM268 123v274l19 17l22 -17v-233h72v-41h-113zM274 35h31q6 0 6 4v6q0 4 -6 4h-31v-14zM344 4v19h21v-21h-19zM344 39v18q2 2 6 2h10q2 0 5 -2 v-18h-21zM373 0l35 74h8l-35 -74h-8zM410 0l34 74h9l-35 -74h-8zM410 123v274l18 17l23 -17v-233h71v-41h-112zM463 2v57h51q12 0 12 -12v-6q0 -6 -10 -10q10 -4 10 -11v-8q0 -10 -16 -10h-47zM475 12h33q6 0 6 4v7q0 4 -6 4h-33v-15zM475 37h33q6 0 6 4v4q0 4 -6 4h-33v-12 zM500 397h45l30 -98l31 98h45l-55 -159v-115h-41v115zM551 2v57h12v-57h-12zM561 1198l426 47l180 393l174 -391l431 -49l-318 -287l88 -424l-373 213l-376 -213l88 418zM590 2v57h12v-47h45v-10h-57zM662 2v57h14v-47h45v-10h-59zM709 123l45 274h57l47 -274l-22 -12 l-23 12l-8 63h-43l-10 -63l-23 -12zM713 59h18l19 -22l20 22h16l-30 -30v-27h-13v25zM768 227h31l-17 107zM784 2l33 57h14l33 -57h-14l-8 12h-37l-6 -12h-15zM811 25h27l-15 24zM879 2v57h51q12 0 12 -12v-12q0 -12 -12 -12h-8l26 -21h-18l-25 21h-12v-21h-14zM879 377 l14 20h63q66 0 66 -65v-39q0 -31 -23 -49l31 -121h-45l-24 104h-27v-104h-41v235zM893 33h31q6 0 6 4v8q0 4 -6 4h-31v-16zM934 268h24q23 0 23 23v41q0 23 -23 22h-24v-86zM965 16v29q0 14 14 14h41q14 0 14 -14l-14 -2v4h-43v-35h43v13h-23v10h37v-19q0 -14 -14 -14h-41 q-14 0 -14 14zM1004 727l47 -29l45 29l22 135h92l21 -135l49 -29l45 29l-98 592h-123zM1057 2v57h61v-10h-47v-12h27v-10h-27v-15h47v-10h-61zM1059 184v150q0 68 65 67q66 0 66 -67v-31h-43v33q0 25 -23 24q-25 0 -24 -24v-150q0 -25 24 -24q23 0 23 24v54h-23l-16 18 l16 23h66v-97q0 -65 -66 -65t-65 65zM1130 950l33 234l35 -234h-68zM1139 2v57h14v-47h43v-10h-57zM1210 6v12q0 2 2 5h19v-21h-17q-4 0 -4 4zM1212 377l15 20h116v-41h-75v-75h55v-41h-55v-76h75v-41h-116v233zM1255 2v57h52q12 0 12 -12v-6q0 -8 -8 -10q10 -4 10 -11v-8 q0 -10 -18 -10h-48zM1270 12h30q6 0 7 4v7q0 4 -7 4h-30v-15zM1270 37h30q6 0 7 4v4q0 4 -7 4h-30v-12zM1343 2v57h15v-47h43v-10h-58zM1372 123v274l21 17l20 -17v-233h72v-41h-113zM1415 16v29q0 14 15 14h45q14 0 14 -14v-29q0 -14 -14 -14h-45q-14 0 -15 14zM1430 12h45 v35h-45v-35zM1511 16v29q0 14 15 14h41q14 0 14 -14l-14 -2v4h-43v-35h43v13h-23v10h37v-19q0 -14 -14 -14h-41q-14 0 -15 14zM1528 377l14 20h117v-41h-76v-75h55v-41h-55v-117h-41v233zM1604 16l10 2v-6h43v13h-37q-14 0 -14 14v6q0 14 14 14h33q14 0 14 -12v-2l-10 -2v6 h-39v-12h37q14 0 14 -14v-7q0 -14 -14 -14h-37q-14 0 -14 14zM1688 186v150q-1 65 65 65t66 -65v-150q0 -66 -66 -65q-66 0 -65 65zM1692 2v57h51q14 0 14 -12v-12q0 -10 -14 -10h-37v-23h-14zM1706 35h31q6 0 6 4v6q0 4 -6 4h-31v-14zM1729 186q0 -25 24 -24q23 0 23 24 v150q0 25 -23 24q-25 0 -24 -24v-150zM1776 16v29q0 14 14 14h43q14 0 14 -14v-29q0 -14 -14 -14h-43q-14 0 -14 14zM1788 12h45v35h-45v-35zM1841 377l14 20h48l53 -184v184h43v-274h-45l-58 176v-176h-41v235zM1864 49v10h67v-10h-26v-47h-15v47h-26zM1950 4v19h18 q2 -2 2 -5v-12q0 -2 -2 -4h-16q-2 0 -2 2zM1993 16v29q0 14 14 14h35q14 0 14 -14v-6l-12 -2v10h-37v-35h37v13l12 -2v-7q0 -14 -14 -14h-35q-14 0 -14 14zM2032 356v41h129v-41h-45v-233l-21 -14l-20 14v233h-43zM2079 16v29q0 14 14 14h43q14 0 14 -14v-29q0 -14 -14 -14 h-43q-14 0 -14 14zM2091 12h47v35h-47v-35zM2175 2v57h10l29 -34l27 34h10v-57h-13v39l-24 -33h-2l-27 33v-39h-10zM2189 199l17 14l22 -12q2 -43 29 -43q27 2 27 32q0 18 -33 54q-25 23 -47 47q-10 25 -11 41q0 70 64 69q63 0 65 -63l-38 -8q-4 35 -27 35q-20 0 -21 -31 q0 -20 54 -74q34 -34 34 -67q4 -72 -65 -72q-66 0 -70 78zM2261 0l35 74h8l-35 -74h-8z" />
<glyph unicode="2" d="M0 375l14 22h62q72 0 71 -75q0 -39 -28 -56q35 -12 35 -65q0 -78 -64 -78h-76v233zM14 2v57h15v-22h43v22h12v-57h-12v25h-43v-25h-15zM59 164h17q33 0 33 39q0 43 -33 43h-17v-82zM59 285h17q29 0 28 37q0 35 -28 34h-17v-71zM102 49v10h68v-10h-27v-47h-14v47h-27z M176 49v10h68v-10h-29v-47h-12v47h-27zM188 123v274h43v-274l-22 -14zM260 2v57h51q14 0 15 -12v-12q0 -10 -15 -10h-37v-23h-14zM268 123v274l19 17l22 -17v-233h72v-41h-113zM274 35h31q6 0 6 4v6q0 4 -6 4h-31v-14zM344 4v19h21v-21h-19zM344 39v18q2 2 6 2h10q2 0 5 -2 v-18h-21zM373 0l35 74h8l-35 -74h-8zM410 0l34 74h9l-35 -74h-8zM410 123v274l18 17l23 -17v-233h71v-41h-112zM463 2v57h51q12 0 12 -12v-6q0 -6 -10 -10q10 -4 10 -11v-8q0 -10 -16 -10h-47zM475 12h33q6 0 6 4v7q0 4 -6 4h-33v-15zM475 37h33q6 0 6 4v4q0 4 -6 4h-33v-12 zM500 397h45l30 -98l31 98h45l-55 -159v-115h-41v115zM551 2v57h12v-57h-12zM561 1198l426 47l180 393l174 -391l431 -49l-318 -287l88 -424l-373 213l-376 -213l88 418zM590 2v57h12v-47h45v-10h-57zM662 2v57h14v-47h45v-10h-59zM709 123l45 274h57l47 -274l-22 -12 l-23 12l-8 63h-43l-10 -63l-23 -12zM713 59h18l19 -22l20 22h16l-30 -30v-27h-13v25zM768 227h31l-17 107zM784 2l33 57h14l33 -57h-14l-8 12h-37l-6 -12h-15zM811 25h27l-15 24zM879 2v57h51q12 0 12 -12v-12q0 -12 -12 -12h-8l26 -21h-18l-25 21h-12v-21h-14zM879 377 l14 20h63q66 0 66 -65v-39q0 -31 -23 -49l31 -121h-45l-24 104h-27v-104h-41v235zM893 33h31q6 0 6 4v8q0 4 -6 4h-31v-16zM934 268h24q23 0 23 23v41q0 23 -23 22h-24v-86zM965 16v29q0 14 14 14h41q14 0 14 -14l-14 -2v4h-43v-35h43v13h-23v10h37v-19q0 -14 -14 -14h-41 q-14 0 -14 14zM1004 727l47 -29l45 29l22 135h92l21 -135l49 -29l45 29l-98 592h-123zM1057 2v57h61v-10h-47v-12h27v-10h-27v-15h47v-10h-61zM1059 184v150q0 68 65 67q66 0 66 -67v-31h-43v33q0 25 -23 24q-25 0 -24 -24v-150q0 -25 24 -24q23 0 23 24v54h-23l-16 18 l16 23h66v-97q0 -65 -66 -65t-65 65zM1130 950l33 234l35 -234h-68zM1139 2v57h14v-47h43v-10h-57zM1210 6v12q0 2 2 5h19v-21h-17q-4 0 -4 4zM1212 377l15 20h116v-41h-75v-75h55v-41h-55v-76h75v-41h-116v233zM1255 2v57h52q12 0 12 -12v-6q0 -8 -8 -10q10 -4 10 -11v-8 q0 -10 -18 -10h-48zM1270 12h30q6 0 7 4v7q0 4 -7 4h-30v-15zM1270 37h30q6 0 7 4v4q0 4 -7 4h-30v-12zM1343 2v57h15v-47h43v-10h-58zM1372 123v274l21 17l20 -17v-233h72v-41h-113zM1415 16v29q0 14 15 14h45q14 0 14 -14v-29q0 -14 -14 -14h-45q-14 0 -15 14zM1430 12h45 v35h-45v-35zM1511 16v29q0 14 15 14h41q14 0 14 -14l-14 -2v4h-43v-35h43v13h-23v10h37v-19q0 -14 -14 -14h-41q-14 0 -15 14zM1528 377l14 20h117v-41h-76v-75h55v-41h-55v-117h-41v233zM1604 16l10 2v-6h43v13h-37q-14 0 -14 14v6q0 14 14 14h33q14 0 14 -12v-2l-10 -2v6 h-39v-12h37q14 0 14 -14v-7q0 -14 -14 -14h-37q-14 0 -14 14zM1688 186v150q-1 65 65 65t66 -65v-150q0 -66 -66 -65q-66 0 -65 65zM1692 2v57h51q14 0 14 -12v-12q0 -10 -14 -10h-37v-23h-14zM1706 35h31q6 0 6 4v6q0 4 -6 4h-31v-14zM1729 186q0 -25 24 -24q23 0 23 24 v150q0 25 -23 24q-25 0 -24 -24v-150zM1776 16v29q0 14 14 14h43q14 0 14 -14v-29q0 -14 -14 -14h-43q-14 0 -14 14zM1788 12h45v35h-45v-35zM1841 377l14 20h48l53 -184v184h43v-274h-45l-58 176v-176h-41v235zM1864 49v10h67v-10h-26v-47h-15v47h-26zM1950 4v19h18 q2 -2 2 -5v-12q0 -2 -2 -4h-16q-2 0 -2 2zM1993 16v29q0 14 14 14h35q14 0 14 -14v-6l-12 -2v10h-37v-35h37v13l12 -2v-7q0 -14 -14 -14h-35q-14 0 -14 14zM2032 356v41h129v-41h-45v-233l-21 -14l-20 14v233h-43zM2079 16v29q0 14 14 14h43q14 0 14 -14v-29q0 -14 -14 -14 h-43q-14 0 -14 14zM2091 12h47v35h-47v-35zM2175 2v57h10l29 -34l27 34h10v-57h-13v39l-24 -33h-2l-27 33v-39h-10zM2189 199l17 14l22 -12q2 -43 29 -43q27 2 27 32q0 18 -33 54q-25 23 -47 47q-10 25 -11 41q0 70 64 69q63 0 65 -63l-38 -8q-4 35 -27 35q-20 0 -21 -31 q0 -20 54 -74q34 -34 34 -67q4 -72 -65 -72q-66 0 -70 78zM2261 0l35 74h8l-35 -74h-8z" />
<glyph unicode="3" d="M0 375l14 22h62q72 0 71 -75q0 -39 -28 -56q35 -12 35 -65q0 -78 -64 -78h-76v233zM14 2v57h15v-22h43v22h12v-57h-12v25h-43v-25h-15zM59 164h17q33 0 33 39q0 43 -33 43h-17v-82zM59 285h17q29 0 28 37q0 35 -28 34h-17v-71zM102 49v10h68v-10h-27v-47h-14v47h-27z M176 49v10h68v-10h-29v-47h-12v47h-27zM188 123v274h43v-274l-22 -14zM260 2v57h51q14 0 15 -12v-12q0 -10 -15 -10h-37v-23h-14zM268 123v274l19 17l22 -17v-233h72v-41h-113zM274 35h31q6 0 6 4v6q0 4 -6 4h-31v-14zM344 4v19h21v-21h-19zM344 39v18q2 2 6 2h10q2 0 5 -2 v-18h-21zM373 0l35 74h8l-35 -74h-8zM410 0l34 74h9l-35 -74h-8zM410 123v274l18 17l23 -17v-233h71v-41h-112zM463 2v57h51q12 0 12 -12v-6q0 -6 -10 -10q10 -4 10 -11v-8q0 -10 -16 -10h-47zM475 12h33q6 0 6 4v7q0 4 -6 4h-33v-15zM475 37h33q6 0 6 4v4q0 4 -6 4h-33v-12 zM500 397h45l30 -98l31 98h45l-55 -159v-115h-41v115zM551 2v57h12v-57h-12zM561 1198l426 47l180 393l174 -391l431 -49l-318 -287l88 -424l-373 213l-376 -213l88 418zM590 2v57h12v-47h45v-10h-57zM662 2v57h14v-47h45v-10h-59zM709 123l45 274h57l47 -274l-22 -12 l-23 12l-8 63h-43l-10 -63l-23 -12zM713 59h18l19 -22l20 22h16l-30 -30v-27h-13v25zM768 227h31l-17 107zM784 2l33 57h14l33 -57h-14l-8 12h-37l-6 -12h-15zM811 25h27l-15 24zM879 2v57h51q12 0 12 -12v-12q0 -12 -12 -12h-8l26 -21h-18l-25 21h-12v-21h-14zM879 377 l14 20h63q66 0 66 -65v-39q0 -31 -23 -49l31 -121h-45l-24 104h-27v-104h-41v235zM893 33h31q6 0 6 4v8q0 4 -6 4h-31v-16zM934 268h24q23 0 23 23v41q0 23 -23 22h-24v-86zM965 16v29q0 14 14 14h41q14 0 14 -14l-14 -2v4h-43v-35h43v13h-23v10h37v-19q0 -14 -14 -14h-41 q-14 0 -14 14zM1004 727l47 -29l45 29l22 135h92l21 -135l49 -29l45 29l-98 592h-123zM1057 2v57h61v-10h-47v-12h27v-10h-27v-15h47v-10h-61zM1059 184v150q0 68 65 67q66 0 66 -67v-31h-43v33q0 25 -23 24q-25 0 -24 -24v-150q0 -25 24 -24q23 0 23 24v54h-23l-16 18 l16 23h66v-97q0 -65 -66 -65t-65 65zM1130 950l33 234l35 -234h-68zM1139 2v57h14v-47h43v-10h-57zM1210 6v12q0 2 2 5h19v-21h-17q-4 0 -4 4zM1212 377l15 20h116v-41h-75v-75h55v-41h-55v-76h75v-41h-116v233zM1255 2v57h52q12 0 12 -12v-6q0 -8 -8 -10q10 -4 10 -11v-8 q0 -10 -18 -10h-48zM1270 12h30q6 0 7 4v7q0 4 -7 4h-30v-15zM1270 37h30q6 0 7 4v4q0 4 -7 4h-30v-12zM1343 2v57h15v-47h43v-10h-58zM1372 123v274l21 17l20 -17v-233h72v-41h-113zM1415 16v29q0 14 15 14h45q14 0 14 -14v-29q0 -14 -14 -14h-45q-14 0 -15 14zM1430 12h45 v35h-45v-35zM1511 16v29q0 14 15 14h41q14 0 14 -14l-14 -2v4h-43v-35h43v13h-23v10h37v-19q0 -14 -14 -14h-41q-14 0 -15 14zM1528 377l14 20h117v-41h-76v-75h55v-41h-55v-117h-41v233zM1604 16l10 2v-6h43v13h-37q-14 0 -14 14v6q0 14 14 14h33q14 0 14 -12v-2l-10 -2v6 h-39v-12h37q14 0 14 -14v-7q0 -14 -14 -14h-37q-14 0 -14 14zM1688 186v150q-1 65 65 65t66 -65v-150q0 -66 -66 -65q-66 0 -65 65zM1692 2v57h51q14 0 14 -12v-12q0 -10 -14 -10h-37v-23h-14zM1706 35h31q6 0 6 4v6q0 4 -6 4h-31v-14zM1729 186q0 -25 24 -24q23 0 23 24 v150q0 25 -23 24q-25 0 -24 -24v-150zM1776 16v29q0 14 14 14h43q14 0 14 -14v-29q0 -14 -14 -14h-43q-14 0 -14 14zM1788 12h45v35h-45v-35zM1841 377l14 20h48l53 -184v184h43v-274h-45l-58 176v-176h-41v235zM1864 49v10h67v-10h-26v-47h-15v47h-26zM1950 4v19h18 q2 -2 2 -5v-12q0 -2 -2 -4h-16q-2 0 -2 2zM1993 16v29q0 14 14 14h35q14 0 14 -14v-6l-12 -2v10h-37v-35h37v13l12 -2v-7q0 -14 -14 -14h-35q-14 0 -14 14zM2032 356v41h129v-41h-45v-233l-21 -14l-20 14v233h-43zM2079 16v29q0 14 14 14h43q14 0 14 -14v-29q0 -14 -14 -14 h-43q-14 0 -14 14zM2091 12h47v35h-47v-35zM2175 2v57h10l29 -34l27 34h10v-57h-13v39l-24 -33h-2l-27 33v-39h-10zM2189 199l17 14l22 -12q2 -43 29 -43q27 2 27 32q0 18 -33 54q-25 23 -47 47q-10 25 -11 41q0 70 64 69q63 0 65 -63l-38 -8q-4 35 -27 35q-20 0 -21 -31 q0 -20 54 -74q34 -34 34 -67q4 -72 -65 -72q-66 0 -70 78zM2261 0l35 74h8l-35 -74h-8z" />
<glyph unicode="4" d="M0 375l14 22h62q72 0 71 -75q0 -39 -28 -56q35 -12 35 -65q0 -78 -64 -78h-76v233zM14 2v57h15v-22h43v22h12v-57h-12v25h-43v-25h-15zM59 164h17q33 0 33 39q0 43 -33 43h-17v-82zM59 285h17q29 0 28 37q0 35 -28 34h-17v-71zM102 49v10h68v-10h-27v-47h-14v47h-27z M176 49v10h68v-10h-29v-47h-12v47h-27zM188 123v274h43v-274l-22 -14zM260 2v57h51q14 0 15 -12v-12q0 -10 -15 -10h-37v-23h-14zM268 123v274l19 17l22 -17v-233h72v-41h-113zM274 35h31q6 0 6 4v6q0 4 -6 4h-31v-14zM344 4v19h21v-21h-19zM344 39v18q2 2 6 2h10q2 0 5 -2 v-18h-21zM373 0l35 74h8l-35 -74h-8zM410 0l34 74h9l-35 -74h-8zM410 123v274l18 17l23 -17v-233h71v-41h-112zM463 2v57h51q12 0 12 -12v-6q0 -6 -10 -10q10 -4 10 -11v-8q0 -10 -16 -10h-47zM475 12h33q6 0 6 4v7q0 4 -6 4h-33v-15zM475 37h33q6 0 6 4v4q0 4 -6 4h-33v-12 zM500 397h45l30 -98l31 98h45l-55 -159v-115h-41v115zM551 2v57h12v-57h-12zM561 1198l426 47l180 393l174 -391l431 -49l-318 -287l88 -424l-373 213l-376 -213l88 418zM590 2v57h12v-47h45v-10h-57zM662 2v57h14v-47h45v-10h-59zM709 123l45 274h57l47 -274l-22 -12 l-23 12l-8 63h-43l-10 -63l-23 -12zM713 59h18l19 -22l20 22h16l-30 -30v-27h-13v25zM768 227h31l-17 107zM784 2l33 57h14l33 -57h-14l-8 12h-37l-6 -12h-15zM811 25h27l-15 24zM879 2v57h51q12 0 12 -12v-12q0 -12 -12 -12h-8l26 -21h-18l-25 21h-12v-21h-14zM879 377 l14 20h63q66 0 66 -65v-39q0 -31 -23 -49l31 -121h-45l-24 104h-27v-104h-41v235zM893 33h31q6 0 6 4v8q0 4 -6 4h-31v-16zM934 268h24q23 0 23 23v41q0 23 -23 22h-24v-86zM965 16v29q0 14 14 14h41q14 0 14 -14l-14 -2v4h-43v-35h43v13h-23v10h37v-19q0 -14 -14 -14h-41 q-14 0 -14 14zM1004 727l47 -29l45 29l22 135h92l21 -135l49 -29l45 29l-98 592h-123zM1057 2v57h61v-10h-47v-12h27v-10h-27v-15h47v-10h-61zM1059 184v150q0 68 65 67q66 0 66 -67v-31h-43v33q0 25 -23 24q-25 0 -24 -24v-150q0 -25 24 -24q23 0 23 24v54h-23l-16 18 l16 23h66v-97q0 -65 -66 -65t-65 65zM1130 950l33 234l35 -234h-68zM1139 2v57h14v-47h43v-10h-57zM1210 6v12q0 2 2 5h19v-21h-17q-4 0 -4 4zM1212 377l15 20h116v-41h-75v-75h55v-41h-55v-76h75v-41h-116v233zM1255 2v57h52q12 0 12 -12v-6q0 -8 -8 -10q10 -4 10 -11v-8 q0 -10 -18 -10h-48zM1270 12h30q6 0 7 4v7q0 4 -7 4h-30v-15zM1270 37h30q6 0 7 4v4q0 4 -7 4h-30v-12zM1343 2v57h15v-47h43v-10h-58zM1372 123v274l21 17l20 -17v-233h72v-41h-113zM1415 16v29q0 14 15 14h45q14 0 14 -14v-29q0 -14 -14 -14h-45q-14 0 -15 14zM1430 12h45 v35h-45v-35zM1511 16v29q0 14 15 14h41q14 0 14 -14l-14 -2v4h-43v-35h43v13h-23v10h37v-19q0 -14 -14 -14h-41q-14 0 -15 14zM1528 377l14 20h117v-41h-76v-75h55v-41h-55v-117h-41v233zM1604 16l10 2v-6h43v13h-37q-14 0 -14 14v6q0 14 14 14h33q14 0 14 -12v-2l-10 -2v6 h-39v-12h37q14 0 14 -14v-7q0 -14 -14 -14h-37q-14 0 -14 14zM1688 186v150q-1 65 65 65t66 -65v-150q0 -66 -66 -65q-66 0 -65 65zM1692 2v57h51q14 0 14 -12v-12q0 -10 -14 -10h-37v-23h-14zM1706 35h31q6 0 6 4v6q0 4 -6 4h-31v-14zM1729 186q0 -25 24 -24q23 0 23 24 v150q0 25 -23 24q-25 0 -24 -24v-150zM1776 16v29q0 14 14 14h43q14 0 14 -14v-29q0 -14 -14 -14h-43q-14 0 -14 14zM1788 12h45v35h-45v-35zM1841 377l14 20h48l53 -184v184h43v-274h-45l-58 176v-176h-41v235zM1864 49v10h67v-10h-26v-47h-15v47h-26zM1950 4v19h18 q2 -2 2 -5v-12q0 -2 -2 -4h-16q-2 0 -2 2zM1993 16v29q0 14 14 14h35q14 0 14 -14v-6l-12 -2v10h-37v-35h37v13l12 -2v-7q0 -14 -14 -14h-35q-14 0 -14 14zM2032 356v41h129v-41h-45v-233l-21 -14l-20 14v233h-43zM2079 16v29q0 14 14 14h43q14 0 14 -14v-29q0 -14 -14 -14 h-43q-14 0 -14 14zM2091 12h47v35h-47v-35zM2175 2v57h10l29 -34l27 34h10v-57h-13v39l-24 -33h-2l-27 33v-39h-10zM2189 199l17 14l22 -12q2 -43 29 -43q27 2 27 32q0 18 -33 54q-25 23 -47 47q-10 25 -11 41q0 70 64 69q63 0 65 -63l-38 -8q-4 35 -27 35q-20 0 -21 -31 q0 -20 54 -74q34 -34 34 -67q4 -72 -65 -72q-66 0 -70 78zM2261 0l35 74h8l-35 -74h-8z" />
<glyph unicode="5" d="M0 375l14 22h62q72 0 71 -75q0 -39 -28 -56q35 -12 35 -65q0 -78 -64 -78h-76v233zM14 2v57h15v-22h43v22h12v-57h-12v25h-43v-25h-15zM59 164h17q33 0 33 39q0 43 -33 43h-17v-82zM59 285h17q29 0 28 37q0 35 -28 34h-17v-71zM102 49v10h68v-10h-27v-47h-14v47h-27z M176 49v10h68v-10h-29v-47h-12v47h-27zM188 123v274h43v-274l-22 -14zM260 2v57h51q14 0 15 -12v-12q0 -10 -15 -10h-37v-23h-14zM268 123v274l19 17l22 -17v-233h72v-41h-113zM274 35h31q6 0 6 4v6q0 4 -6 4h-31v-14zM344 4v19h21v-21h-19zM344 39v18q2 2 6 2h10q2 0 5 -2 v-18h-21zM373 0l35 74h8l-35 -74h-8zM410 0l34 74h9l-35 -74h-8zM410 123v274l18 17l23 -17v-233h71v-41h-112zM463 2v57h51q12 0 12 -12v-6q0 -6 -10 -10q10 -4 10 -11v-8q0 -10 -16 -10h-47zM475 12h33q6 0 6 4v7q0 4 -6 4h-33v-15zM475 37h33q6 0 6 4v4q0 4 -6 4h-33v-12 zM500 397h45l30 -98l31 98h45l-55 -159v-115h-41v115zM551 2v57h12v-57h-12zM561 1198l426 47l180 393l174 -391l431 -49l-318 -287l88 -424l-373 213l-376 -213l88 418zM590 2v57h12v-47h45v-10h-57zM662 2v57h14v-47h45v-10h-59zM709 123l45 274h57l47 -274l-22 -12 l-23 12l-8 63h-43l-10 -63l-23 -12zM713 59h18l19 -22l20 22h16l-30 -30v-27h-13v25zM768 227h31l-17 107zM784 2l33 57h14l33 -57h-14l-8 12h-37l-6 -12h-15zM811 25h27l-15 24zM879 2v57h51q12 0 12 -12v-12q0 -12 -12 -12h-8l26 -21h-18l-25 21h-12v-21h-14zM879 377 l14 20h63q66 0 66 -65v-39q0 -31 -23 -49l31 -121h-45l-24 104h-27v-104h-41v235zM893 33h31q6 0 6 4v8q0 4 -6 4h-31v-16zM934 268h24q23 0 23 23v41q0 23 -23 22h-24v-86zM965 16v29q0 14 14 14h41q14 0 14 -14l-14 -2v4h-43v-35h43v13h-23v10h37v-19q0 -14 -14 -14h-41 q-14 0 -14 14zM1004 727l47 -29l45 29l22 135h92l21 -135l49 -29l45 29l-98 592h-123zM1057 2v57h61v-10h-47v-12h27v-10h-27v-15h47v-10h-61zM1059 184v150q0 68 65 67q66 0 66 -67v-31h-43v33q0 25 -23 24q-25 0 -24 -24v-150q0 -25 24 -24q23 0 23 24v54h-23l-16 18 l16 23h66v-97q0 -65 -66 -65t-65 65zM1130 950l33 234l35 -234h-68zM1139 2v57h14v-47h43v-10h-57zM1210 6v12q0 2 2 5h19v-21h-17q-4 0 -4 4zM1212 377l15 20h116v-41h-75v-75h55v-41h-55v-76h75v-41h-116v233zM1255 2v57h52q12 0 12 -12v-6q0 -8 -8 -10q10 -4 10 -11v-8 q0 -10 -18 -10h-48zM1270 12h30q6 0 7 4v7q0 4 -7 4h-30v-15zM1270 37h30q6 0 7 4v4q0 4 -7 4h-30v-12zM1343 2v57h15v-47h43v-10h-58zM1372 123v274l21 17l20 -17v-233h72v-41h-113zM1415 16v29q0 14 15 14h45q14 0 14 -14v-29q0 -14 -14 -14h-45q-14 0 -15 14zM1430 12h45 v35h-45v-35zM1511 16v29q0 14 15 14h41q14 0 14 -14l-14 -2v4h-43v-35h43v13h-23v10h37v-19q0 -14 -14 -14h-41q-14 0 -15 14zM1528 377l14 20h117v-41h-76v-75h55v-41h-55v-117h-41v233zM1604 16l10 2v-6h43v13h-37q-14 0 -14 14v6q0 14 14 14h33q14 0 14 -12v-2l-10 -2v6 h-39v-12h37q14 0 14 -14v-7q0 -14 -14 -14h-37q-14 0 -14 14zM1688 186v150q-1 65 65 65t66 -65v-150q0 -66 -66 -65q-66 0 -65 65zM1692 2v57h51q14 0 14 -12v-12q0 -10 -14 -10h-37v-23h-14zM1706 35h31q6 0 6 4v6q0 4 -6 4h-31v-14zM1729 186q0 -25 24 -24q23 0 23 24 v150q0 25 -23 24q-25 0 -24 -24v-150zM1776 16v29q0 14 14 14h43q14 0 14 -14v-29q0 -14 -14 -14h-43q-14 0 -14 14zM1788 12h45v35h-45v-35zM1841 377l14 20h48l53 -184v184h43v-274h-45l-58 176v-176h-41v235zM1864 49v10h67v-10h-26v-47h-15v47h-26zM1950 4v19h18 q2 -2 2 -5v-12q0 -2 -2 -4h-16q-2 0 -2 2zM1993 16v29q0 14 14 14h35q14 0 14 -14v-6l-12 -2v10h-37v-35h37v13l12 -2v-7q0 -14 -14 -14h-35q-14 0 -14 14zM2032 356v41h129v-41h-45v-233l-21 -14l-20 14v233h-43zM2079 16v29q0 14 14 14h43q14 0 14 -14v-29q0 -14 -14 -14 h-43q-14 0 -14 14zM2091 12h47v35h-47v-35zM2175 2v57h10l29 -34l27 34h10v-57h-13v39l-24 -33h-2l-27 33v-39h-10zM2189 199l17 14l22 -12q2 -43 29 -43q27 2 27 32q0 18 -33 54q-25 23 -47 47q-10 25 -11 41q0 70 64 69q63 0 65 -63l-38 -8q-4 35 -27 35q-20 0 -21 -31 q0 -20 54 -74q34 -34 34 -67q4 -72 -65 -72q-66 0 -70 78zM2261 0l35 74h8l-35 -74h-8z" />
<glyph unicode="6" d="M0 375l14 22h62q72 0 71 -75q0 -39 -28 -56q35 -12 35 -65q0 -78 -64 -78h-76v233zM14 2v57h15v-22h43v22h12v-57h-12v25h-43v-25h-15zM59 164h17q33 0 33 39q0 43 -33 43h-17v-82zM59 285h17q29 0 28 37q0 35 -28 34h-17v-71zM102 49v10h68v-10h-27v-47h-14v47h-27z M176 49v10h68v-10h-29v-47h-12v47h-27zM188 123v274h43v-274l-22 -14zM260 2v57h51q14 0 15 -12v-12q0 -10 -15 -10h-37v-23h-14zM268 123v274l19 17l22 -17v-233h72v-41h-113zM274 35h31q6 0 6 4v6q0 4 -6 4h-31v-14zM344 4v19h21v-21h-19zM344 39v18q2 2 6 2h10q2 0 5 -2 v-18h-21zM373 0l35 74h8l-35 -74h-8zM410 0l34 74h9l-35 -74h-8zM410 123v274l18 17l23 -17v-233h71v-41h-112zM463 2v57h51q12 0 12 -12v-6q0 -6 -10 -10q10 -4 10 -11v-8q0 -10 -16 -10h-47zM475 12h33q6 0 6 4v7q0 4 -6 4h-33v-15zM475 37h33q6 0 6 4v4q0 4 -6 4h-33v-12 zM500 397h45l30 -98l31 98h45l-55 -159v-115h-41v115zM551 2v57h12v-57h-12zM561 1198l426 47l180 393l174 -391l431 -49l-318 -287l88 -424l-373 213l-376 -213l88 418zM590 2v57h12v-47h45v-10h-57zM662 2v57h14v-47h45v-10h-59zM709 123l45 274h57l47 -274l-22 -12 l-23 12l-8 63h-43l-10 -63l-23 -12zM713 59h18l19 -22l20 22h16l-30 -30v-27h-13v25zM768 227h31l-17 107zM784 2l33 57h14l33 -57h-14l-8 12h-37l-6 -12h-15zM811 25h27l-15 24zM879 2v57h51q12 0 12 -12v-12q0 -12 -12 -12h-8l26 -21h-18l-25 21h-12v-21h-14zM879 377 l14 20h63q66 0 66 -65v-39q0 -31 -23 -49l31 -121h-45l-24 104h-27v-104h-41v235zM893 33h31q6 0 6 4v8q0 4 -6 4h-31v-16zM934 268h24q23 0 23 23v41q0 23 -23 22h-24v-86zM965 16v29q0 14 14 14h41q14 0 14 -14l-14 -2v4h-43v-35h43v13h-23v10h37v-19q0 -14 -14 -14h-41 q-14 0 -14 14zM1004 727l47 -29l45 29l22 135h92l21 -135l49 -29l45 29l-98 592h-123zM1057 2v57h61v-10h-47v-12h27v-10h-27v-15h47v-10h-61zM1059 184v150q0 68 65 67q66 0 66 -67v-31h-43v33q0 25 -23 24q-25 0 -24 -24v-150q0 -25 24 -24q23 0 23 24v54h-23l-16 18 l16 23h66v-97q0 -65 -66 -65t-65 65zM1130 950l33 234l35 -234h-68zM1139 2v57h14v-47h43v-10h-57zM1210 6v12q0 2 2 5h19v-21h-17q-4 0 -4 4zM1212 377l15 20h116v-41h-75v-75h55v-41h-55v-76h75v-41h-116v233zM1255 2v57h52q12 0 12 -12v-6q0 -8 -8 -10q10 -4 10 -11v-8 q0 -10 -18 -10h-48zM1270 12h30q6 0 7 4v7q0 4 -7 4h-30v-15zM1270 37h30q6 0 7 4v4q0 4 -7 4h-30v-12zM1343 2v57h15v-47h43v-10h-58zM1372 123v274l21 17l20 -17v-233h72v-41h-113zM1415 16v29q0 14 15 14h45q14 0 14 -14v-29q0 -14 -14 -14h-45q-14 0 -15 14zM1430 12h45 v35h-45v-35zM1511 16v29q0 14 15 14h41q14 0 14 -14l-14 -2v4h-43v-35h43v13h-23v10h37v-19q0 -14 -14 -14h-41q-14 0 -15 14zM1528 377l14 20h117v-41h-76v-75h55v-41h-55v-117h-41v233zM1604 16l10 2v-6h43v13h-37q-14 0 -14 14v6q0 14 14 14h33q14 0 14 -12v-2l-10 -2v6 h-39v-12h37q14 0 14 -14v-7q0 -14 -14 -14h-37q-14 0 -14 14zM1688 186v150q-1 65 65 65t66 -65v-150q0 -66 -66 -65q-66 0 -65 65zM1692 2v57h51q14 0 14 -12v-12q0 -10 -14 -10h-37v-23h-14zM1706 35h31q6 0 6 4v6q0 4 -6 4h-31v-14zM1729 186q0 -25 24 -24q23 0 23 24 v150q0 25 -23 24q-25 0 -24 -24v-150zM1776 16v29q0 14 14 14h43q14 0 14 -14v-29q0 -14 -14 -14h-43q-14 0 -14 14zM1788 12h45v35h-45v-35zM1841 377l14 20h48l53 -184v184h43v-274h-45l-58 176v-176h-41v235zM1864 49v10h67v-10h-26v-47h-15v47h-26zM1950 4v19h18 q2 -2 2 -5v-12q0 -2 -2 -4h-16q-2 0 -2 2zM1993 16v29q0 14 14 14h35q14 0 14 -14v-6l-12 -2v10h-37v-35h37v13l12 -2v-7q0 -14 -14 -14h-35q-14 0 -14 14zM2032 356v41h129v-41h-45v-233l-21 -14l-20 14v233h-43zM2079 16v29q0 14 14 14h43q14 0 14 -14v-29q0 -14 -14 -14 h-43q-14 0 -14 14zM2091 12h47v35h-47v-35zM2175 2v57h10l29 -34l27 34h10v-57h-13v39l-24 -33h-2l-27 33v-39h-10zM2189 199l17 14l22 -12q2 -43 29 -43q27 2 27 32q0 18 -33 54q-25 23 -47 47q-10 25 -11 41q0 70 64 69q63 0 65 -63l-38 -8q-4 35 -27 35q-20 0 -21 -31 q0 -20 54 -74q34 -34 34 -67q4 -72 -65 -72q-66 0 -70 78zM2261 0l35 74h8l-35 -74h-8z" />
<glyph unicode="7" d="M0 375l14 22h62q72 0 71 -75q0 -39 -28 -56q35 -12 35 -65q0 -78 -64 -78h-76v233zM14 2v57h15v-22h43v22h12v-57h-12v25h-43v-25h-15zM59 164h17q33 0 33 39q0 43 -33 43h-17v-82zM59 285h17q29 0 28 37q0 35 -28 34h-17v-71zM102 49v10h68v-10h-27v-47h-14v47h-27z M176 49v10h68v-10h-29v-47h-12v47h-27zM188 123v274h43v-274l-22 -14zM260 2v57h51q14 0 15 -12v-12q0 -10 -15 -10h-37v-23h-14zM268 123v274l19 17l22 -17v-233h72v-41h-113zM274 35h31q6 0 6 4v6q0 4 -6 4h-31v-14zM344 4v19h21v-21h-19zM344 39v18q2 2 6 2h10q2 0 5 -2 v-18h-21zM373 0l35 74h8l-35 -74h-8zM410 0l34 74h9l-35 -74h-8zM410 123v274l18 17l23 -17v-233h71v-41h-112zM463 2v57h51q12 0 12 -12v-6q0 -6 -10 -10q10 -4 10 -11v-8q0 -10 -16 -10h-47zM475 12h33q6 0 6 4v7q0 4 -6 4h-33v-15zM475 37h33q6 0 6 4v4q0 4 -6 4h-33v-12 zM500 397h45l30 -98l31 98h45l-55 -159v-115h-41v115zM551 2v57h12v-57h-12zM561 1198l426 47l180 393l174 -391l431 -49l-318 -287l88 -424l-373 213l-376 -213l88 418zM590 2v57h12v-47h45v-10h-57zM662 2v57h14v-47h45v-10h-59zM709 123l45 274h57l47 -274l-22 -12 l-23 12l-8 63h-43l-10 -63l-23 -12zM713 59h18l19 -22l20 22h16l-30 -30v-27h-13v25zM768 227h31l-17 107zM784 2l33 57h14l33 -57h-14l-8 12h-37l-6 -12h-15zM811 25h27l-15 24zM879 2v57h51q12 0 12 -12v-12q0 -12 -12 -12h-8l26 -21h-18l-25 21h-12v-21h-14zM879 377 l14 20h63q66 0 66 -65v-39q0 -31 -23 -49l31 -121h-45l-24 104h-27v-104h-41v235zM893 33h31q6 0 6 4v8q0 4 -6 4h-31v-16zM934 268h24q23 0 23 23v41q0 23 -23 22h-24v-86zM965 16v29q0 14 14 14h41q14 0 14 -14l-14 -2v4h-43v-35h43v13h-23v10h37v-19q0 -14 -14 -14h-41 q-14 0 -14 14zM1004 727l47 -29l45 29l22 135h92l21 -135l49 -29l45 29l-98 592h-123zM1057 2v57h61v-10h-47v-12h27v-10h-27v-15h47v-10h-61zM1059 184v150q0 68 65 67q66 0 66 -67v-31h-43v33q0 25 -23 24q-25 0 -24 -24v-150q0 -25 24 -24q23 0 23 24v54h-23l-16 18 l16 23h66v-97q0 -65 -66 -65t-65 65zM1130 950l33 234l35 -234h-68zM1139 2v57h14v-47h43v-10h-57zM1210 6v12q0 2 2 5h19v-21h-17q-4 0 -4 4zM1212 377l15 20h116v-41h-75v-75h55v-41h-55v-76h75v-41h-116v233zM1255 2v57h52q12 0 12 -12v-6q0 -8 -8 -10q10 -4 10 -11v-8 q0 -10 -18 -10h-48zM1270 12h30q6 0 7 4v7q0 4 -7 4h-30v-15zM1270 37h30q6 0 7 4v4q0 4 -7 4h-30v-12zM1343 2v57h15v-47h43v-10h-58zM1372 123v274l21 17l20 -17v-233h72v-41h-113zM1415 16v29q0 14 15 14h45q14 0 14 -14v-29q0 -14 -14 -14h-45q-14 0 -15 14zM1430 12h45 v35h-45v-35zM1511 16v29q0 14 15 14h41q14 0 14 -14l-14 -2v4h-43v-35h43v13h-23v10h37v-19q0 -14 -14 -14h-41q-14 0 -15 14zM1528 377l14 20h117v-41h-76v-75h55v-41h-55v-117h-41v233zM1604 16l10 2v-6h43v13h-37q-14 0 -14 14v6q0 14 14 14h33q14 0 14 -12v-2l-10 -2v6 h-39v-12h37q14 0 14 -14v-7q0 -14 -14 -14h-37q-14 0 -14 14zM1688 186v150q-1 65 65 65t66 -65v-150q0 -66 -66 -65q-66 0 -65 65zM1692 2v57h51q14 0 14 -12v-12q0 -10 -14 -10h-37v-23h-14zM1706 35h31q6 0 6 4v6q0 4 -6 4h-31v-14zM1729 186q0 -25 24 -24q23 0 23 24 v150q0 25 -23 24q-25 0 -24 -24v-150zM1776 16v29q0 14 14 14h43q14 0 14 -14v-29q0 -14 -14 -14h-43q-14 0 -14 14zM1788 12h45v35h-45v-35zM1841 377l14 20h48l53 -184v184h43v-274h-45l-58 176v-176h-41v235zM1864 49v10h67v-10h-26v-47h-15v47h-26zM1950 4v19h18 q2 -2 2 -5v-12q0 -2 -2 -4h-16q-2 0 -2 2zM1993 16v29q0 14 14 14h35q14 0 14 -14v-6l-12 -2v10h-37v-35h37v13l12 -2v-7q0 -14 -14 -14h-35q-14 0 -14 14zM2032 356v41h129v-41h-45v-233l-21 -14l-20 14v233h-43zM2079 16v29q0 14 14 14h43q14 0 14 -14v-29q0 -14 -14 -14 h-43q-14 0 -14 14zM2091 12h47v35h-47v-35zM2175 2v57h10l29 -34l27 34h10v-57h-13v39l-24 -33h-2l-27 33v-39h-10zM2189 199l17 14l22 -12q2 -43 29 -43q27 2 27 32q0 18 -33 54q-25 23 -47 47q-10 25 -11 41q0 70 64 69q63 0 65 -63l-38 -8q-4 35 -27 35q-20 0 -21 -31 q0 -20 54 -74q34 -34 34 -67q4 -72 -65 -72q-66 0 -70 78zM2261 0l35 74h8l-35 -74h-8z" />
<glyph unicode="8" d="M0 375l14 22h62q72 0 71 -75q0 -39 -28 -56q35 -12 35 -65q0 -78 -64 -78h-76v233zM14 2v57h15v-22h43v22h12v-57h-12v25h-43v-25h-15zM59 164h17q33 0 33 39q0 43 -33 43h-17v-82zM59 285h17q29 0 28 37q0 35 -28 34h-17v-71zM102 49v10h68v-10h-27v-47h-14v47h-27z M176 49v10h68v-10h-29v-47h-12v47h-27zM188 123v274h43v-274l-22 -14zM260 2v57h51q14 0 15 -12v-12q0 -10 -15 -10h-37v-23h-14zM268 123v274l19 17l22 -17v-233h72v-41h-113zM274 35h31q6 0 6 4v6q0 4 -6 4h-31v-14zM344 4v19h21v-21h-19zM344 39v18q2 2 6 2h10q2 0 5 -2 v-18h-21zM373 0l35 74h8l-35 -74h-8zM410 0l34 74h9l-35 -74h-8zM410 123v274l18 17l23 -17v-233h71v-41h-112zM463 2v57h51q12 0 12 -12v-6q0 -6 -10 -10q10 -4 10 -11v-8q0 -10 -16 -10h-47zM475 12h33q6 0 6 4v7q0 4 -6 4h-33v-15zM475 37h33q6 0 6 4v4q0 4 -6 4h-33v-12 zM500 397h45l30 -98l31 98h45l-55 -159v-115h-41v115zM551 2v57h12v-57h-12zM561 1198l426 47l180 393l174 -391l431 -49l-318 -287l88 -424l-373 213l-376 -213l88 418zM590 2v57h12v-47h45v-10h-57zM662 2v57h14v-47h45v-10h-59zM709 123l45 274h57l47 -274l-22 -12 l-23 12l-8 63h-43l-10 -63l-23 -12zM713 59h18l19 -22l20 22h16l-30 -30v-27h-13v25zM768 227h31l-17 107zM784 2l33 57h14l33 -57h-14l-8 12h-37l-6 -12h-15zM811 25h27l-15 24zM879 2v57h51q12 0 12 -12v-12q0 -12 -12 -12h-8l26 -21h-18l-25 21h-12v-21h-14zM879 377 l14 20h63q66 0 66 -65v-39q0 -31 -23 -49l31 -121h-45l-24 104h-27v-104h-41v235zM893 33h31q6 0 6 4v8q0 4 -6 4h-31v-16zM934 268h24q23 0 23 23v41q0 23 -23 22h-24v-86zM965 16v29q0 14 14 14h41q14 0 14 -14l-14 -2v4h-43v-35h43v13h-23v10h37v-19q0 -14 -14 -14h-41 q-14 0 -14 14zM1004 727l47 -29l45 29l22 135h92l21 -135l49 -29l45 29l-98 592h-123zM1057 2v57h61v-10h-47v-12h27v-10h-27v-15h47v-10h-61zM1059 184v150q0 68 65 67q66 0 66 -67v-31h-43v33q0 25 -23 24q-25 0 -24 -24v-150q0 -25 24 -24q23 0 23 24v54h-23l-16 18 l16 23h66v-97q0 -65 -66 -65t-65 65zM1130 950l33 234l35 -234h-68zM1139 2v57h14v-47h43v-10h-57zM1210 6v12q0 2 2 5h19v-21h-17q-4 0 -4 4zM1212 377l15 20h116v-41h-75v-75h55v-41h-55v-76h75v-41h-116v233zM1255 2v57h52q12 0 12 -12v-6q0 -8 -8 -10q10 -4 10 -11v-8 q0 -10 -18 -10h-48zM1270 12h30q6 0 7 4v7q0 4 -7 4h-30v-15zM1270 37h30q6 0 7 4v4q0 4 -7 4h-30v-12zM1343 2v57h15v-47h43v-10h-58zM1372 123v274l21 17l20 -17v-233h72v-41h-113zM1415 16v29q0 14 15 14h45q14 0 14 -14v-29q0 -14 -14 -14h-45q-14 0 -15 14zM1430 12h45 v35h-45v-35zM1511 16v29q0 14 15 14h41q14 0 14 -14l-14 -2v4h-43v-35h43v13h-23v10h37v-19q0 -14 -14 -14h-41q-14 0 -15 14zM1528 377l14 20h117v-41h-76v-75h55v-41h-55v-117h-41v233zM1604 16l10 2v-6h43v13h-37q-14 0 -14 14v6q0 14 14 14h33q14 0 14 -12v-2l-10 -2v6 h-39v-12h37q14 0 14 -14v-7q0 -14 -14 -14h-37q-14 0 -14 14zM1688 186v150q-1 65 65 65t66 -65v-150q0 -66 -66 -65q-66 0 -65 65zM1692 2v57h51q14 0 14 -12v-12q0 -10 -14 -10h-37v-23h-14zM1706 35h31q6 0 6 4v6q0 4 -6 4h-31v-14zM1729 186q0 -25 24 -24q23 0 23 24 v150q0 25 -23 24q-25 0 -24 -24v-150zM1776 16v29q0 14 14 14h43q14 0 14 -14v-29q0 -14 -14 -14h-43q-14 0 -14 14zM1788 12h45v35h-45v-35zM1841 377l14 20h48l53 -184v184h43v-274h-45l-58 176v-176h-41v235zM1864 49v10h67v-10h-26v-47h-15v47h-26zM1950 4v19h18 q2 -2 2 -5v-12q0 -2 -2 -4h-16q-2 0 -2 2zM1993 16v29q0 14 14 14h35q14 0 14 -14v-6l-12 -2v10h-37v-35h37v13l12 -2v-7q0 -14 -14 -14h-35q-14 0 -14 14zM2032 356v41h129v-41h-45v-233l-21 -14l-20 14v233h-43zM2079 16v29q0 14 14 14h43q14 0 14 -14v-29q0 -14 -14 -14 h-43q-14 0 -14 14zM2091 12h47v35h-47v-35zM2175 2v57h10l29 -34l27 34h10v-57h-13v39l-24 -33h-2l-27 33v-39h-10zM2189 199l17 14l22 -12q2 -43 29 -43q27 2 27 32q0 18 -33 54q-25 23 -47 47q-10 25 -11 41q0 70 64 69q63 0 65 -63l-38 -8q-4 35 -27 35q-20 0 -21 -31 q0 -20 54 -74q34 -34 34 -67q4 -72 -65 -72q-66 0 -70 78zM2261 0l35 74h8l-35 -74h-8z" />
<glyph unicode="9" d="M0 375l14 22h62q72 0 71 -75q0 -39 -28 -56q35 -12 35 -65q0 -78 -64 -78h-76v233zM14 2v57h15v-22h43v22h12v-57h-12v25h-43v-25h-15zM59 164h17q33 0 33 39q0 43 -33 43h-17v-82zM59 285h17q29 0 28 37q0 35 -28 34h-17v-71zM102 49v10h68v-10h-27v-47h-14v47h-27z M176 49v10h68v-10h-29v-47h-12v47h-27zM188 123v274h43v-274l-22 -14zM260 2v57h51q14 0 15 -12v-12q0 -10 -15 -10h-37v-23h-14zM268 123v274l19 17l22 -17v-233h72v-41h-113zM274 35h31q6 0 6 4v6q0 4 -6 4h-31v-14zM344 4v19h21v-21h-19zM344 39v18q2 2 6 2h10q2 0 5 -2 v-18h-21zM373 0l35 74h8l-35 -74h-8zM410 0l34 74h9l-35 -74h-8zM410 123v274l18 17l23 -17v-233h71v-41h-112zM463 2v57h51q12 0 12 -12v-6q0 -6 -10 -10q10 -4 10 -11v-8q0 -10 -16 -10h-47zM475 12h33q6 0 6 4v7q0 4 -6 4h-33v-15zM475 37h33q6 0 6 4v4q0 4 -6 4h-33v-12 zM500 397h45l30 -98l31 98h45l-55 -159v-115h-41v115zM551 2v57h12v-57h-12zM561 1198l426 47l180 393l174 -391l431 -49l-318 -287l88 -424l-373 213l-376 -213l88 418zM590 2v57h12v-47h45v-10h-57zM662 2v57h14v-47h45v-10h-59zM709 123l45 274h57l47 -274l-22 -12 l-23 12l-8 63h-43l-10 -63l-23 -12zM713 59h18l19 -22l20 22h16l-30 -30v-27h-13v25zM768 227h31l-17 107zM784 2l33 57h14l33 -57h-14l-8 12h-37l-6 -12h-15zM811 25h27l-15 24zM879 2v57h51q12 0 12 -12v-12q0 -12 -12 -12h-8l26 -21h-18l-25 21h-12v-21h-14zM879 377 l14 20h63q66 0 66 -65v-39q0 -31 -23 -49l31 -121h-45l-24 104h-27v-104h-41v235zM893 33h31q6 0 6 4v8q0 4 -6 4h-31v-16zM934 268h24q23 0 23 23v41q0 23 -23 22h-24v-86zM965 16v29q0 14 14 14h41q14 0 14 -14l-14 -2v4h-43v-35h43v13h-23v10h37v-19q0 -14 -14 -14h-41 q-14 0 -14 14zM1004 727l47 -29l45 29l22 135h92l21 -135l49 -29l45 29l-98 592h-123zM1057 2v57h61v-10h-47v-12h27v-10h-27v-15h47v-10h-61zM1059 184v150q0 68 65 67q66 0 66 -67v-31h-43v33q0 25 -23 24q-25 0 -24 -24v-150q0 -25 24 -24q23 0 23 24v54h-23l-16 18 l16 23h66v-97q0 -65 -66 -65t-65 65zM1130 950l33 234l35 -234h-68zM1139 2v57h14v-47h43v-10h-57zM1210 6v12q0 2 2 5h19v-21h-17q-4 0 -4 4zM1212 377l15 20h116v-41h-75v-75h55v-41h-55v-76h75v-41h-116v233zM1255 2v57h52q12 0 12 -12v-6q0 -8 -8 -10q10 -4 10 -11v-8 q0 -10 -18 -10h-48zM1270 12h30q6 0 7 4v7q0 4 -7 4h-30v-15zM1270 37h30q6 0 7 4v4q0 4 -7 4h-30v-12zM1343 2v57h15v-47h43v-10h-58zM1372 123v274l21 17l20 -17v-233h72v-41h-113zM1415 16v29q0 14 15 14h45q14 0 14 -14v-29q0 -14 -14 -14h-45q-14 0 -15 14zM1430 12h45 v35h-45v-35zM1511 16v29q0 14 15 14h41q14 0 14 -14l-14 -2v4h-43v-35h43v13h-23v10h37v-19q0 -14 -14 -14h-41q-14 0 -15 14zM1528 377l14 20h117v-41h-76v-75h55v-41h-55v-117h-41v233zM1604 16l10 2v-6h43v13h-37q-14 0 -14 14v6q0 14 14 14h33q14 0 14 -12v-2l-10 -2v6 h-39v-12h37q14 0 14 -14v-7q0 -14 -14 -14h-37q-14 0 -14 14zM1688 186v150q-1 65 65 65t66 -65v-150q0 -66 -66 -65q-66 0 -65 65zM1692 2v57h51q14 0 14 -12v-12q0 -10 -14 -10h-37v-23h-14zM1706 35h31q6 0 6 4v6q0 4 -6 4h-31v-14zM1729 186q0 -25 24 -24q23 0 23 24 v150q0 25 -23 24q-25 0 -24 -24v-150zM1776 16v29q0 14 14 14h43q14 0 14 -14v-29q0 -14 -14 -14h-43q-14 0 -14 14zM1788 12h45v35h-45v-35zM1841 377l14 20h48l53 -184v184h43v-274h-45l-58 176v-176h-41v235zM1864 49v10h67v-10h-26v-47h-15v47h-26zM1950 4v19h18 q2 -2 2 -5v-12q0 -2 -2 -4h-16q-2 0 -2 2zM1993 16v29q0 14 14 14h35q14 0 14 -14v-6l-12 -2v10h-37v-35h37v13l12 -2v-7q0 -14 -14 -14h-35q-14 0 -14 14zM2032 356v41h129v-41h-45v-233l-21 -14l-20 14v233h-43zM2079 16v29q0 14 14 14h43q14 0 14 -14v-29q0 -14 -14 -14 h-43q-14 0 -14 14zM2091 12h47v35h-47v-35zM2175 2v57h10l29 -34l27 34h10v-57h-13v39l-24 -33h-2l-27 33v-39h-10zM2189 199l17 14l22 -12q2 -43 29 -43q27 2 27 32q0 18 -33 54q-25 23 -47 47q-10 25 -11 41q0 70 64 69q63 0 65 -63l-38 -8q-4 35 -27 35q-20 0 -21 -31 q0 -20 54 -74q34 -34 34 -67q4 -72 -65 -72q-66 0 -70 78zM2261 0l35 74h8l-35 -74h-8z" />
<glyph unicode="&#x3c;" horiz-adv-x="208" d="M-2560 -129q10 37 59 100q53 68 56 125q4 43 -2 66q8 4 20 8t33 8q276 61 625 62q127 0 249 -7q45 -2 194.5 -16t407.5 -43q106 -10 200.5 -16t178.5 -6q438 0 617 184q68 70 67 104q0 18 -18 29q-12 6 -43 -7t-45 -28q-29 -29 -41 -8l-10 16q-6 16 12 35q66 59 127 60 q82 0 82 -88q0 -74 -113 -189q-170 -178 -420 -225q-72 -14 -163 -20.5t-201 -6.5q-63 0 -138 2t-163 6l-260 13q-391 8 -602 -6q-168 -12 -302.5 -33t-236.5 -49q-94 -27 -170 -70z" />
<glyph unicode="&#x3e;" horiz-adv-x="208" d="M-2560 -129q10 37 59 100q53 68 56 125q4 43 -2 66q8 4 20 8t33 8q276 61 625 62q127 0 249 -7q45 -2 194.5 -16t407.5 -43q106 -10 200.5 -16t178.5 -6q438 0 617 184q68 70 67 104q0 18 -18 29q-12 6 -43 -7t-45 -28q-29 -29 -41 -8l-10 16q-6 16 12 35q66 59 127 60 q82 0 82 -88q0 -74 -113 -189q-170 -178 -420 -225q-72 -14 -163 -20.5t-201 -6.5q-63 0 -138 2t-163 6l-260 13q-391 8 -602 -6q-168 -12 -302.5 -33t-236.5 -49q-94 -27 -170 -70z" />
<glyph unicode="A" horiz-adv-x="1423" d="M-2 532q0 104 84 207q76 92 178 135q61 25 119 31q10 1 19 1q52 0 98 -28q54 -34 61 -96q1 -7 1 -14q0 -46 -34 -96q-13 154 -141 154q-10 0 -21 -1q-43 -4 -86 -21.5t-78.5 -45t-64.5 -65.5t-43 -81q-11 -32 -11 -61q0 -19 5 -37q16 -61 78 -96q57 -29 123 -29 q238 0 643 369q-66 43 -154 43q-92 0 -164 -41q-1 4 -1 8q0 57 104 82q36 8 73.5 8t77.5 -8q66 -12 113 -47l129 121l223 225l131 131q-45 8 -119.5 20.5t-185.5 32.5q-35 8 -64.5 10.5t-56.5 -0.5q-88 -6 -155 -43q-84 -47 -99 -120q-2 -11 -1 -21q0 -51 50 -78 q37 -21 89 -21q13 0 28 1q55 6 106.5 42t71.5 85q8 16 2 26q-6 14 -28 19q-7 1 -13 1q-32 0 -55 -26q-12 -12 -16 -24q-25 14 -6 47q18 31 55 49q26 12 50 12q11 0 22 -2q43 -8 59 -37q8 -16 8 -32q0 -19 -10 -39q-31 -74 -102.5 -124t-153.5 -59q-22 -2 -43 -2 q-138 0 -195 105q-12 24 -12 56q0 19 4 40q33 129 195 199q114 46 253 47q21 0 42 -2q55 -2 200 -25q125 -18 199 -18q57 0 94 10q49 14 62 12q23 -1 23 -16q0 -5 -3 -12q-12 -18 -57 -95q-117 -201 -232 -450q-66 -147 -112.5 -266t-73.5 -211q-6 -23 -27 -52 q-12 -10 -24 -12l-117 -14q-5 -1 -8 -1q-15 0 -17 13v33q-2 227 -96 358q-324 -283 -528 -356q-92 -31 -176 -31q-45 0 -97 10q-152 37 -186 158q-6 27 -6 55zM1044 743q82 -88 125 -221q63 166 134 293l213 365l-351 -328z" />
<glyph unicode="B" horiz-adv-x="1495" d="M0 555q0 205 209 285q41 14 85 14q18 0 36 -2q72 -10 117 -54q41 -40 41 -100q0 -7 -1 -14q-78 96 -163 98h-16q-86 0 -152 -61q-72 -68 -72 -164q0 -78 53 -127q62 -60 173 -60q17 0 36 1l43 6q-113 63 -141 168q-4 13 -4 26q0 43 41 88q12 14 49 25q-2 -10 -3 -20.5 t-1 -20.5q0 -141 162 -229q109 66 196 198q25 39 55.5 91.5t65.5 117.5q39 72 67.5 123t45.5 80q152 252 303 287q20 -4 39.5 -7.5t35.5 -7.5q-25 -18 -51 -47q-102 -111 -254 -399q-145 -276 -258 -393q-27 -27 -53.5 -49.5t-54.5 -38.5q31 -4 62.5 -7.5t66.5 -3.5 q45 0 93 5.5t99 15.5q129 27 244 100q139 91 139 203v6q-10 184 -262 197q-35 4 -35 28q2 14 15 23q4 2 39 8q231 45 356 158q65 60 65 113q0 9 -2 18q-27 129 -307 151q-45 3 -87 3q-262 0 -423 -107q-82 -55 -82 -113q0 -12 11 -37q24 -40 102 -40h4q59 0 116.5 29.5 t82.5 80.5q8 12 4 25q-8 14 -31 14q-18 0 -45 -13.5t-31 -29.5q-10 6 -10 16q0 8 8 23l8 10q40 45 91 45q11 0 22 -2q55 -10 55 -53q0 -14 -10 -39q-18 -37 -49 -65.5t-69 -50t-79.5 -33t-84.5 -11.5q-131 0 -175 84q-10 19 -10 43q0 10 2 21q0 82 115 153q86 55 186 80 q131 33 277 33q168 0 321 -49q211 -68 211 -197q0 -94 -147 -194q-102 -68 -230 -103h5h-3q250 -98 250 -262q0 -88 -82 -164q-123 -117 -327 -166q-105 -26 -259 -26h-12q-164 0 -299 35q-59 -18 -112 -25q-39 -4 -76 -4q-68 0 -129 14q-35 10 -72 27q-57 29 -59 41 q-80 74 -80 178z" />
<glyph unicode="C" horiz-adv-x="919" d="M6 555q0 287 279 586q121 129 250 207q174 104 333 104q94 0 158 -45q72 -49 88 -135q5 -30 6 -60q0 -48 -14 -98q-63 -221 -277 -342q-49 -27 -90 -37q-29 -7 -57 -7q-52 0 -102 24q-10 4 -26.5 15t-39.5 28q-4 4 -6 10q0 6 6 10l16 -4q27 -2 60 0q37 2 76 23l73 43 q215 131 267 360q4 20 4 36q0 46 -29 68q-26 17 -63 17q-34 0 -78 -15q-147 -51 -346 -221q-82 -70 -168 -166q-199 -223 -199 -426q0 -117 111 -165q39 -18 94 -19q195 0 463 162q51 33 112 86q8 -14 8 -31q0 -57 -108 -141q-70 -55 -189 -100q-147 -57 -282 -58 q-143 0 -234 72q-96 78 -96 219z" />
<glyph unicode="D" horiz-adv-x="1228" d="M-12 592q57 -82 174 -129q104 -43 215 -43q207 0 473 158q70 41 134.5 94t123.5 116q147 154 152 285v5q0 102 -80 157q-68 43 -183 47h-18t-23 -2q-59 -74 -172 -246q-59 -90 -101 -152.5t-69 -97.5q-70 -94 -151 -125q-31 -12 -60 -2q47 78 109.5 177.5t140.5 222.5 q39 59 72 106t61 84q-211 -61 -428 -227q-236 -178 -237 -309q0 -9 2 -17q25 -86 164 -86h18q174 10 324 131q119 94 137 199q2 4 2 8t2 10q10 0 18 -8q6 -25 9.5 -46t5.5 -38q1 -10 1 -19q0 -173 -206 -292q-131 -76 -268 -76q-119 0 -205 55q-99 65 -99 198q0 10 1 20 q6 94 96 208q248 319 674 406q33 6 59.5 10t48.5 6q100 98 170 99q10 0 29.5 -7.5t11.5 -15.5l-74 -76q154 -23 238 -102q94 -89 94 -236q0 -164 -125 -319q-143 -176 -350 -291q-217 -119 -436 -119q-313 0 -436 172q-39 53 -39 107z" />
<glyph unicode="E" horiz-adv-x="870" d="M-8 582v10q0 164 201 293q86 55 315 104q23 4 50.5 8t59.5 7q-59 42 -59 121v10q4 113 105 182l-31 22q-43 43 -43 91q0 97 75 97q7 0 15 -1q74 -5 74 -53q0 -9 -2 -19q-14 39 -62 39q-39 0 -49 -41q-1 -7 -1 -13q0 -51 85 -79l35 22q160 111 330 113h11q136 0 152 -94 q6 -37 6 -63q0 -43 -16 -60q-74 -82 -215 -82q-92 0 -221 45q-14 4 -53 25q-74 -66 -74 -127q0 -53 55 -90q48 -35 99 -35h6q39 0 131 12l16 2q-7 -79 -137 -79q-25 0 -55 3q-336 -43 -596 -209q-90 -59 -105 -129q-1 -6 0 -12q0 -93 152 -141q80 -25 162 -25q117 0 239 47 q137 51 191 144l12 18q8 -2 14 -16q-6 -51 -16 -90q-27 -96 -107 -154q-39 -27 -96 -51q-117 -47 -237 -47q-254 0 -373 162q-39 55 -43 133zM813 1323q7 -25 144 -25h40q182 3 217 95q-2 14 -47 14h-22q-97 0 -191 -31q-16 -4 -51 -17t-90 -36z" />
<glyph unicode="F" horiz-adv-x="1075" d="M-4 555q0 205 209 285q39 14 83 14q18 0 36 -2q70 -10 116 -54q41 -39 42 -98q0 -8 -1 -16q-78 96 -164 98h-15q-87 0 -155 -63q-71 -67 -71 -159q0 -79 57 -130q62 -60 173 -60q17 0 36 1q96 10 168 57q131 92 289 381q-92 12 -137 12q-23 0 -35 -4q-6 -4 -11 0 q-4 4 -4 10q53 23 209 27q12 23 36 66t58 104q96 164 195 238q-306 84 -450 84h-7q-102 -4 -176 -39q-96 -45 -112 -129q-3 -14 -3 -27q0 -55 56 -88q51 -31 119 -32q8 0 16 1q61 4 119.5 40t81.5 91q8 18 4 31q-8 18 -35 25q-7 1 -14 1q-35 0 -62 -26q-16 -16 -18 -29 q-16 10 -16 26q0 13 10 30q18 33 61 51q28 12 54 12q14 0 28 -4q49 -12 68 -47q7 -16 7 -34q0 -21 -10 -46q-18 -41 -48.5 -75t-68.5 -58.5t-83 -39.5t-90 -17q-13 -1 -26 -1q-178 0 -243 132q-17 29 -17 63q0 21 7 45q14 68 84 131q59 55 137 84q94 35 219 35q53 0 115 -6 q74 -8 316 -49l141 -25q279 -48 445 -47h36q16 2 35 5t35 9q2 -10 2 -19q0 -67 -92 -99q-63 -23 -164 -27h-32q-161 0 -312 37q-96 -113 -230 -365l-2 -6q66 10 140 68q59 48 83 48q3 0 5 -1q16 -6 16 -21q-2 -20 -72 -92q-41 -41 -82 -117q-43 -84 -45 -133q-17 31 -17 71 q0 8 1 17q2 57 35 115q-41 -16 -98 -18q-121 -225 -230 -340q-129 -135 -319 -158q-39 -4 -76 -4q-68 0 -131 14q-117 29 -131 68q-78 74 -78 178z" />
<glyph unicode="G" horiz-adv-x="1382" d="M0 41v6q0 113 78 201q86 92 198 100q10 1 21 1q52 0 100 -17q45 -6 88 -66q45 -57 45 -104q0 -31 -14 -58q-74 161 -205 161q-11 0 -22 -1q-43 -4 -82 -23.5t-66.5 -50t-43 -70.5t-15.5 -83q0 -55 29 -103q82 -129 251 -129q223 0 476 310q29 35 192 266l29 43 q-205 -143 -391 -143q-131 0 -217 72.5t-101 201.5q-3 27 -3 54q0 201 161 435q66 96 162 187q266 252 583 252q213 0 263 -123q-84 49 -205 49q-319 0 -609 -348q-121 -147 -188 -320q-39 -98 -39 -178q0 -135 121 -184q26 -12 64 -12q21 0 45 4q53 10 102 26 q268 98 506 459q78 117 112 225q14 43 14 78q0 37 -16 64q-31 39 -86 39q-106 0 -231 -101q-178 -145 -203 -321q-4 -31 0 -60q4 -16 4 -18q-4 -4 -10 -4q-8 0 -10 6q-63 82 -64 166q0 70 43 147q119 217 342 279q43 13 88 13q34 0 70 -7q82 -14 131 -81q45 -62 45 -140v-13 q16 10 41 25.5t57 38.5q33 2 35 -12q6 -23 -92 -170q-33 -53 -86 -138.5t-131 -203.5q-47 -70 -109.5 -160t-140.5 -203q-78 -111 -142.5 -193.5t-117.5 -138.5q-174 -186 -336 -233q-63 -18 -127 -18q-49 0 -98 10q-57 10 -145 61q-102 57 -107 103q-39 63 -43 145z" />
<glyph unicode="H" horiz-adv-x="1333" d="M-4 510q0 197 203 276q38 15 83 15q16 0 33 -2q68 -9 113 -53q41 -40 41 -99v-10q-76 92 -160 94h-11q-86 0 -153 -61q-69 -62 -69 -155q0 -77 53 -126q60 -59 167 -59q17 0 36 2q186 14 332 233q27 41 70.5 118t105.5 194q-54 35 -130 35q-10 0 -20 -1 q-158 -10 -264 -112q-4 12 -4 20q0 57 106 113q84 43 177 49q12 1 24 1q79 0 150 -34l98 180q27 43 50.5 78t45.5 64l-53 10l-264 47q-35 8 -66 10t-55 0q-92 -10 -156 -43q-84 -47 -98 -120q-2 -11 -2 -21q0 -49 49 -78q40 -21 92 -21q13 0 27 1q129 16 178 127q10 16 2 26 q-10 16 -29 19q-6 1 -12 1q-30 0 -55 -26q-12 -12 -17 -24q-25 12 -6 47q16 31 55 48q29 13 54 13q9 0 18 -2q43 -8 60 -37q8 -16 8 -32q0 -19 -10 -39q-31 -74 -104 -125.5t-152 -59.5q-14 -1 -28 -1q-57 0 -108 20q-72 29 -102 86q-14 26 -14 56q0 19 6 40q14 61 76 119 q51 51 118 80q103 44 248 44q23 0 47 -1q35 -2 84 -7.5t113 -15.5q66 -10 116 -15t83 -5q2 2 124 20l-2 -2q63 0 50 -14q-25 -18 -52 -47q-109 -121 -239 -371l-60 -115q90 -102 127 -246q180 362 353 629q133 201 227 201q10 0 30 -8q16 -6 16 -13q0 -2 -1 -4 q-61 -68 -158 -221q-72 -115 -185.5 -320.5t-272.5 -510.5q-70 -131 -158 -144h-5q-14 0 -30 8l10 21l15 33q37 70 82 194q2 14 2 29q0 86 -60 195q-10 18 -20.5 34.5t-20.5 30.5q-49 -90 -87 -152.5t-64 -99.5q-104 -141 -207 -201q-72 -41 -191 -55q-43 -6 -81 -6 q-14 0 -27 1q-49 3 -90 13q-12 4 -29.5 11.5t-40.5 17.5q-53 25 -59 39q-76 70 -76 172z" />
<glyph unicode="I" horiz-adv-x="921" d="M0 567q-3 24 -3 46q0 139 126 206q49 27 98 29q15 2 29 2q43 0 84 -14q37 -6 84 -54q55 -55 55 -114q0 -23 -8 -41q-82 149 -198 149q-12 0 -25 -2q-82 -8 -129 -68q-39 -49 -39 -113q0 -14 2 -28q6 -55 37 -94q82 -117 245 -117q203 0 400 283q16 23 54 83t97 159 q39 78 82 161.5t94 176.5l29 51l-182 -17q-217 -31 -299 -137q-37 -47 -37 -98q0 -84 80 -121q29 -14 59 -14q66 0 125 51q41 33 45 43l-12 -4q-18 -29 -33.5 -51.5t-30.5 -38.5q-51 -57 -102 -64q-13 -1 -25 -1q-77 0 -139 54q-59 53 -59 150q0 119 114 215q98 80 228 113 q18 4 71.5 14t141.5 24q66 10 118 23.5t93 30.5l61 41q5 1 8 1q14 0 19 -14q1 -3 1 -8q0 -35 -69 -147l-102 -170l-193 -332q-59 -102 -111.5 -177t-92.5 -126q-143 -170 -285 -213q-59 -17 -119 -17q-43 0 -86 9q-59 12 -141 55q-98 51 -107 94q-43 55 -53 131z" />
<glyph unicode="J" horiz-adv-x="1200" d="M0 319v7q0 82 43 154q45 75 121 114q49 25 112 31q15 1 29 1q49 0 92 -16q45 -6 88 -65q45 -57 45 -105q0 -31 -14 -57q-74 161 -205 161q-11 0 -22 -1q-43 -4 -82 -23.5t-66.5 -50.5t-43 -71t-15.5 -83q0 -55 29 -102q82 -129 251 -129q223 0 476 309l192 264 q25 35 104.5 164t217.5 357q-188 -31 -238 -43q-264 -57 -377 -183q-74 -84 -73 -166q0 -88 84 -124q27 -12 59 -13q78 0 172 78q57 49 61 59l2 2q4 0 4 -7q0 -13 -16 -54q-27 -72 -112 -119q-78 -43 -162 -43q-94 0 -150.5 55.5t-56.5 147.5q0 164 160 303q63 57 140 100 t169 76q59 20 237 62q131 29 226.5 69.5t158.5 91.5h7q24 0 28 -14q1 -2 1 -5q0 -32 -93 -163l-59 -94q-213 -342 -408 -610q-66 -92 -124 -168t-109 -135q-237 -280 -493 -280q-47 0 -95 9q-59 12 -148 60q-102 55 -104 104q-39 63 -43 145z" />
<glyph unicode="K" horiz-adv-x="1257" d="M-4 530q0 197 203 277q39 14 82 14q17 0 34 -2q154 -24 154 -149v-13q-74 88 -160 95h-15q-83 0 -149 -60q-69 -62 -69 -154q0 -79 53 -128q61 -59 170 -59q16 0 33 1q186 14 332 234q27 41 67.5 110.5t93.5 173.5q63 117 100.5 186.5t51.5 92.5q29 47 55.5 86t50.5 68 q-43 8 -117.5 20t-183.5 33q-35 8 -65.5 10t-54.5 0q-88 -6 -158 -43q-86 -45 -98 -121q-1 -10 -1 -18q0 -52 50 -80q42 -22 94 -22q12 0 24 1q55 6 105.5 42t71.5 85q8 16 4 27q-10 14 -31 18q-6 1 -12 1q-30 0 -54 -25q-16 -16 -18 -25q-20 14 -4 47q18 31 55 49 q26 13 51 13q11 0 21 -2q41 -8 57 -37q7 -13 7 -29q0 -19 -9 -43q-31 -76 -100.5 -125t-155.5 -57q-18 -2 -35 -2q-51 0 -98 18q-72 29 -102 86q-16 30 -16 61q0 18 5 36q33 127 195 198q114 46 253 46q21 0 42 -1q53 -2 192 -24q123 -18 195 -19q8 0 24.5 2t35 3t36 2.5 t29.5 1.5q41 -6 31 -15q-117 -86 -291 -418l-62 -116q4 2 15.5 2t29.5 2h14.5t26.5 2q137 18 242 209q168 309 395 364q53 13 73 13h3q8 -1 12 -5q0 -4 -1 -6t-8 -6t-22.5 -11t-43.5 -20q-84 -41 -142 -125q-8 -12 -30.5 -51t-59.5 -104q-125 -221 -362 -297v-2 q100 -53 104 -141q0 -23 -6 -48l-10 -36q-20 -72 -27 -162q-1 -38 -1 -74t1 -70q12 -166 76 -288q82 -166 225 -166q68 0 131.5 34.5t93.5 92.5q12 -25 13 -47q0 -59 -78 -113q-63 -39 -133 -51q-12 -2 -24.5 -3t-22.5 -1q-213 0 -320 260q-33 78 -50 167t-19 187v15 q0 158 40 341q1 6 1 12q0 35 -31 52q-18 10 -78 14q-12 2 -25.5 4t-27.5 6q-119 -219 -172 -292q-102 -141 -207 -201q-72 -41 -191 -55q-43 -6 -81 -6q-14 0 -27 1q-49 3 -90 13q-16 2 -72 28q-55 27 -57 39q-76 70 -76 172z" />
<glyph unicode="L" horiz-adv-x="897" d="M2 342q-3 11 -3 21q0 37 36 63q54 43 156 43h18q47 -2 99 -6t106 -14q20 25 40.5 52t43.5 60q29 45 87 146.5t146 261.5q-31 10 -74 31.5t-100 52.5t-100 52t-72 32q-61 23 -115 26h-7q-71 0 -103 -39q-6 8 -6 19q0 57 102 98q38 14 79.5 13.5t86.5 -13.5 q25 -8 55.5 -24.5t65.5 -38.5q55 -41 112.5 -80t112.5 -64l78 140q147 246 280 294q61 23 111 27h13q84 0 134 -50q47 -47 47 -128q0 -12 -1 -25q-18 -209 -271 -311q-114 -47 -241 -47q-23 0 -46 2q-180 -334 -249 -428q-16 -20 -33 -43t-37 -45q80 -20 235 -86 q180 -74 265 -105q76 -27 143.5 -46t130.5 -31l4 -2q159 -27 267 -27q41 0 75 4q137 14 217 59q16 8 21 25v6q10 10 24 -10q3 -6 3 -12t-3 -13q-35 -76 -178 -121q-111 -35 -217 -43q-45 -3 -90 -3q-279 0 -522 124q-72 35 -147.5 73t-153.5 79q-61 33 -146 59 q-104 -92 -202 -100q-16 -2 -36 -3t-42 1q-178 6 -199 94zM76 360q0 -49 67 -55q14 -1 28 -1q47 0 95 15q76 21 101 64q-129 33 -195 33h-14q-82 -6 -82 -56zM903 993q23 -4 47 -5q134 0 279 140q98 93 121 185q3 15 3 28q1 15 -3 27q-6 24 -22 38q-16 16 -40 20q-8 2 -17 1 q-17 0 -36 -6q-94 -29 -180 -164l-144 -249z" />
<glyph unicode="M" horiz-adv-x="1789" d="M0 621q6 111 86 194q80 84 193 92q14 1 28 1q45 0 84 -15q43 -6 76 -57q37 -53 37 -95q0 -31 -17 -59q-58 150 -182 150q-10 0 -20 -1q-86 -8 -144.5 -68.5t-62.5 -146.5q-1 -8 0 -15q0 -45 20 -79q66 -121 230 -121q209 0 458 289q23 27 72 88.5t127 159.5 q47 63 102.5 142t118.5 175q-143 23 -229 38.5t-117 21.5q-48 10 -95 10q-20 0 -40 -2q-102 -10 -160 -53q-66 -46 -66 -123q0 -11 1 -23q8 -78 80 -116q47 -25 106 -25q18 0 37 2q59 8 103 51t51 103v7q0 43 -48 48h-8q-35 0 -55 -31q-12 -23 -10 -30q-25 11 -25 41 q0 8 2 16q8 38 45 60q27 17 55 16l19 -2q101 -18 101 -112q0 -9 -1 -19q-8 -88 -69.5 -149.5t-149.5 -74.5q-24 -3 -47 -3q-119 0 -215 85q-74 68 -78 152v11q0 49 31 110q86 181 385 181q20 0 41 -1q29 -2 88 -8t152 -21q107 -15 191 -15q25 0 48 1q61 2 90 22q18 10 25 9 q16 0 20 -13q0 -10 -8 -26q-10 -23 -18 -47.5t-15 -47.5q-47 -174 -85 -340.5t-66 -326.5q393 639 737 823q39 20 68 31q22 8 37 8q21 0 30 -14q6 -8 -4 -29q-53 -66 -82 -94q-147 -195 -243 -469q-100 -276 -101 -516q0 -203 78 -359q82 -166 223 -166q68 0 132.5 35 t95.5 92q10 -23 10 -44q0 -35 -25 -68q-33 -43 -94 -72q-72 -31 -137 -31q-211 0 -322 260q-67 158 -67 367v6q0 440 276 881q-315 -262 -657 -914q-14 -27 -27 -26h-86q-33 0 -27 30l7 31q20 121 53 292t80 398l-166 -215q-274 -350 -449 -460q-133 -84 -266 -86 q-23 0 -45 3t-45 7q-162 35 -225 153q-31 55 -31 121v15z" />
<glyph unicode="N" horiz-adv-x="1429" d="M0 621q6 111 86 194q80 84 193 92q14 1 28 1q45 0 84 -15q43 -6 76 -57q37 -53 37 -95q0 -31 -17 -59q-58 150 -182 150q-10 0 -20 -1q-86 -6 -144.5 -67.5t-62.5 -147.5q-1 -8 0 -15q0 -45 20 -79q66 -121 230 -121q211 0 460 289q35 41 84.5 102.5t112.5 145.5l221 317 q-100 16 -186 30.5t-160 29.5q-49 10 -96 10q-20 0 -39 -2q-102 -10 -160 -53q-66 -46 -66 -123q0 -11 1 -23q8 -78 80 -116q47 -25 106 -25q18 0 37 2q59 8 103 51t51 103v7q0 43 -48 48h-8q-35 0 -55 -31q-12 -23 -10 -30q-25 11 -25 41q0 8 2 16q8 38 45 60q27 17 55 16 l19 -2q101 -18 101 -112q0 -9 -1 -19q-6 -51 -28.5 -93.5t-57.5 -71t-81 -45t-97 -16.5q-94 0 -176 51q-113 70 -119 185v6q0 49 31 115q86 181 385 181q20 0 41 -1q43 -4 258 -31q78 -10 142 -12q22 -1 42 -1q40 0 74 3q4 2 19.5 8t41.5 19q12 4 19 2q14 0 18 -13l-24 -65 q-8 -20 -25 -84q-41 -160 -75.5 -312.5t-61.5 -302.5q412 690 860 744q29 4 56.5 5t56.5 -1q205 -8 321 -131q70 -73 70 -137q0 -10 -2 -19q-4 -20 -31 -35q-41 113 -141 179q-96 59 -221 65q-16 1 -33 1q-479 0 -877 -763q-16 -33 -45.5 -88t-74.5 -135q-6 -8 -17 -8h-86 q-31 0 -27 30q29 195 64 374t76 347l-166 -215q-80 -104 -145.5 -181t-116.5 -128q-180 -176 -330 -219q-64 -17 -126 -17q-44 0 -87 9q-162 35 -225 153q-31 55 -31 121v15z" />
<glyph unicode="O" horiz-adv-x="989" d="M4 555q-3 28 -3 56q0 205 159 433q66 96 162 187q242 229 530 250q32 2 61 2q205 0 254 -123q-84 49 -202 49q-319 0 -609 -348q-121 -147 -188 -320q-39 -98 -39 -178q0 -135 119 -184q29 -12 66 -12q21 0 44 4t48.5 10t52.5 16q264 94 508 459q80 121 112 225 q14 44 14 78q0 39 -18 64q-27 39 -84 39q-109 0 -233 -101q-176 -143 -201 -321q-4 -31 0 -60q4 -14 2 -18q-4 -4 -10 -4t-8 6q-66 84 -66 166q0 70 43 147q119 217 342 279q45 12 92 12q33 0 68 -6q78 -14 127 -78.5t49 -144.5q0 -138 -111 -324q-41 -72 -100 -142.5 t-135 -140.5q-275 -251 -529 -251h-2q-135 0 -218 71.5t-97 202.5z" />
<glyph unicode="P" horiz-adv-x="1333" d="M-4 555q0 201 209 285q39 14 83 14q18 0 36 -2q72 -10 118 -54q40 -39 40 -98q0 -8 -1 -16q-78 96 -164 98h-15q-86 0 -152 -63q-72 -68 -72 -162q0 -76 55 -127q62 -60 173 -60q17 0 36 1q190 14 342 241q23 35 53.5 87.5t67.5 121.5l110 203q175 289 330 289h12 q-119 41 -253 41q-29 0 -60 -2t-63 -6q-213 -29 -355 -142q-110 -89 -110 -188q0 -25 2 -33q14 -80 129 -80q76 0 140.5 47t96.5 119q10 25 9 35q-8 27 -35 26q-27 0 -56.5 -21.5t-35.5 -45.5q-12 8 -12 23q0 17 16 42q45 80 125 80q59 0 75 -55q3 -12 3 -25q0 -33 -19 -69 q-45 -98 -137 -168q-96 -74 -201 -74q-86 0 -146.5 53.5t-60.5 139.5q0 25 6 49q10 90 93 182q193 211 571 211q203 0 375 -78q213 -96 241 -272q2 -14 3 -26.5t1 -24.5q0 -188 -264 -338q-217 -123 -389 -123h-16q-16 0 -36 3t-24 17q0 27 41 33q258 33 435 213 q115 118 115 221q0 8 -1 15q-10 135 -164 204q-35 -29 -53 -47q-53 -57 -116.5 -155.5t-137.5 -239.5q-150 -283 -258 -397q-129 -135 -319 -158q-39 -4 -76 -4q-68 0 -131 14q-23 6 -72 29q-53 25 -59 39q-78 74 -78 178z" />
<glyph unicode="Q" horiz-adv-x="989" d="M0 176q2 12 49 35q154 65 432 65h8q213 0 410 -43q329 -71 452 -71h3q29 4 79 8t121 8q12 0 19 -6l-10 -6v2q-16 -8 -42 -14.5t-59 -14.5q-112 -24 -256 -24h-12q-244 0 -553 69q-179 41 -309 41q-26 0 -51 -2q-37 -4 -69 -8t-58 -12l-97 -31q-18 -6 -32 -6q-10 0 -25 10 zM12 555q-3 28 -3 57q0 197 159 432q29 45 70 91.5t94 95.5q242 229 528 250q35 3 67 3q198 0 251 -124q-84 49 -205 49q-319 0 -608 -348q-121 -147 -189 -320q-39 -98 -39 -178q0 -135 121 -184q28 -12 65 -12q20 0 44 4q23 4 48 10t52 16q264 94 508 459q80 121 112 225 q14 43 14 78q0 37 -16 64q-31 39 -86 39q-109 0 -233 -101q-176 -143 -201 -321q-4 -31 0 -60q4 -16 4 -18q-4 -4 -10 -4q-8 0 -10 6q-66 84 -66 166q0 70 43 147q119 217 342 279q45 12 92 12q33 0 68 -6q78 -12 127 -76q49 -65 49 -149q0 -136 -108 -322 q-82 -143 -238 -283q-280 -251 -528 -251h-2q-131 0 -216 72.5t-100 201.5z" />
<glyph unicode="R" horiz-adv-x="1202" d="M-4 555q0 201 209 285q39 14 83 14q18 0 36 -2q72 -10 118 -54q40 -39 40 -98q0 -8 -1 -16q-78 96 -164 98h-15q-86 0 -152 -63q-72 -68 -72 -162q0 -76 55 -127q62 -60 173 -60q17 0 36 1q190 14 342 241q23 35 53.5 87.5t67.5 121.5l110 203q121 201 238 262 q29 14 66 25q20 -4 39.5 -7.5t37.5 -7.5q-102 -72 -229 -301l-145 -272q242 27 419 186q119 108 119 205v12q-16 188 -334 228q-65 8 -131 8q-57 0 -114 -6q-211 -20 -355 -127q-110 -83 -110 -170q0 -76 80 -96q25 -8 51 -9q72 0 138.5 43t98.5 109q10 25 9 31 q-10 25 -35 24q-25 0 -55.5 -18.5t-36.5 -40.5q-12 7 -12 20q0 15 16 37q49 72 125 72q59 0 75 -49q3 -10 3 -21q0 -29 -19 -65q-25 -47 -61.5 -86t-81.5 -69t-95.5 -46t-99.5 -16q-96 0 -162 65q-45 45 -45 107q0 23 6 47q10 82 93 164q190 190 571 190q217 0 389 -76 q231 -102 231 -286q0 -168 -264 -306q-70 -35 -141.5 -60.5t-149.5 -39.5l3 -2l-3 2l9 -6h-4v-4q61 -33 79 -96q4 -13 4 -27q0 -26 -12 -55q-14 -29 -30.5 -74t-38.5 -111q-25 -102 -25 -202q0 -147 51 -248q63 -129 201 -129q145 0 225 100q4 -20 4 -31q0 -55 -75 -98 q-74 -47 -160 -49h-18q-167 0 -257 143q-78 127 -77 316q0 221 106 467q6 23 4 34q-8 33 -100 48q-14 0 -41 6q-137 -227 -283 -312q-74 -45 -194 -57q-39 -4 -76 -4q-68 0 -131 14q-117 29 -131 68q-78 74 -78 178z" />
<glyph unicode="S" horiz-adv-x="1183" d="M0 524q0 129 156 234q172 114 382 114h11q78 0 145 -28q84 -37 84 -107q0 -53 -71 -84q-41 -18 -76 -18q-18 0 -29 2q43 39 43 78q0 6 -4 18q-37 57 -137 64q-20 1 -40 1q-206 0 -294 -155q-27 -49 -27 -104q0 -13 2 -27q25 -158 291 -184q20 -2 40 -3t38 -1 q311 0 418 235q16 37 16 72q0 94 -114 227q-39 45 -81 98.5t-87 114.5q-39 70 -39 131q0 90 65 174q92 115 291 121h23q160 0 251 -80q58 -48 59 -118q0 -5 -1 -9q-2 -55 -94 -131q-27 -23 -56.5 -52.5l-64.5 -64.5q-14 14 -26.5 49t-8.5 54q8 14 35 41q76 74 82 131 q1 6 1 11q0 40 -38 71q-33 29 -86 39q-10 2 -27.5 3t-40.5 -1q-43 0 -81 -15.5t-66.5 -42t-46 -61.5t-17.5 -78q0 -76 51 -135l191 -215q119 -139 119 -252q0 -170 -223 -283q-186 -94 -443 -94q-145 0 -274 41q-170 55 -197 172q-2 12 -3 24.5t-1 22.5z" />
<glyph unicode="T" horiz-adv-x="923" d="M-4 555q0 205 209 285q41 14 84 14q17 0 35 -2q72 -10 118 -54q40 -39 40 -98q0 -8 -1 -16q-78 96 -164 98h-15q-86 0 -152 -63q-72 -68 -72 -162q0 -76 55 -127q62 -60 173 -60q17 0 36 1q190 14 342 241q23 35 53.5 87.5t67.5 121.5l110 203q129 215 252 270 q-250 43 -399 43q-162 0 -270 -57q-125 -63 -125 -166q0 -66 73 -92q37 -13 83 -13q23 0 49 3q70 8 131 49t88 100q8 20 2 31q-8 16 -37 20h-5q-42 0 -77 -30q-16 -16 -21 -31q-17 8 -17 24q0 13 11 31q21 34 69 56q38 18 70 17q9 0 17 -1q51 -8 72 -41q10 -16 10 -35 q0 -21 -12 -45q-18 -43 -52 -80t-76 -66.5t-89.5 -48t-96.5 -24.5q-25 -3 -49 -3q-58 0 -113 17q-92 27 -129 92q-17 33 -17 68q0 20 5 41q23 74 96 141q33 31 69 54.5t75 40.5q145 61 349 61h13q49 -2 133 -6t207 -14l154 -13l194 -12q54 -2 104 -2q37 0 72 1q82 3 154 11 q18 2 37 7.5t37 13.5q2 -6 2 -19q0 -121 -277 -151q-39 -4 -86 -6.5t-104 -2.5q-94 0 -219 19q-104 -88 -250 -363q-72 -135 -122 -222t-79 -128q-102 -141 -215 -207q-74 -45 -194 -57q-39 -4 -76 -4q-68 0 -131 14q-117 29 -131 68q-78 74 -78 178z" />
<glyph unicode="U" horiz-adv-x="952" d="M0 1346q10 90 94 147q76 51 172 51q33 0 68 -6q147 -29 246 -143q89 -103 89 -235q0 -13 -1 -27q-6 -100 -64 -211q-16 -35 -45 -83t-67 -112l-119 -186q-36 -61 -36 -94q0 -6 1 -11q6 -27 47 -33q6 -1 13 -1q80 0 210 110q119 100 158 182q174 377 436 799 q55 -29 55 -115q0 -55 -30 -112q-291 -545 -391 -791q-35 -86 -54.5 -144.5t-23.5 -92.5q-2 -2 -8 -2q-57 0 -76 71q-8 27 -8 55.5t4 59.5q2 27 10 49q-156 -141 -279 -147h-11q-102 0 -144 71q-27 39 -27 88q0 92 84 232q12 23 39 61.5t68 97.5q68 98 104 166 q51 100 51 187v6q-4 70 -57 133q-76 90 -182 113q-21 3 -42 3q-32 0 -63 -7q-129 -35 -139 -140q-1 -8 -1 -16q0 -81 77 -129q66 -41 166 -47q-43 -25 -95 -25h-14q-72 6 -135 56q-81 63 -81 152q0 10 1 20z" />
<glyph unicode="V" horiz-adv-x="940" d="M0 1155q2 45 47 115q107 171 412 171q17 0 35 -1q61 -2 176 -19q63 -10 106 -15t68 -7q13 -1 30 -1q42 0 107 7q82 8 80 10q-20 -63 -52 -154.5t-77 -211.5q-47 -125 -79 -217.5t-52 -151.5q111 150 213 267.5t203 205.5q346 302 664 302q18 0 36 -1q215 -12 313 -137 q55 -72 56 -129q0 -50 -43 -68q-25 119 -125 187q-90 59 -217 67q-17 1 -34 1q-307 0 -622 -304q-252 -246 -536 -704q-23 -37 -37 -37h-88q-33 0 -23 28q66 229 140.5 447.5t158.5 429.5l8 18q-12 0 -18 2l-29 7l-334 55q-52 10 -97 10q-19 0 -38 -2q-98 -10 -164 -51 q-80 -51 -84 -137v-8q0 -72 68 -103q41 -25 97 -25q18 0 38 3q59 6 108.5 48t63.5 99q1 7 1 12q0 34 -40 39h-9q-35 0 -58 -28q-14 -16 -15 -31q-29 16 -14 55q14 34 52 56q28 16 55 16q10 0 20 -2q88 -18 88 -88q0 -94 -96 -179q-74 -61 -158 -69q-21 -3 -42 -3 q-58 0 -111 21q-84 31 -123 94q-30 45 -30 94q0 9 1 17z" />
<glyph unicode="W" horiz-adv-x="1357" d="M0 1143q4 47 49 121q110 181 408 181q20 0 41 -1q45 -4 254 -31q78 -10 142 -12q21 -1 41 -1q40 0 75 3q6 0 32 8q25 8 29 4t4 -8q0 -10 -16 -43l-2 -6l-2 -2l-6 -17q-47 -119 -109.5 -288.5t-140.5 -393.5q293 397 551 607l69 61q10 4 11 -6v-14q-2 -20 -29 -86 q-49 -123 -98.5 -261.5t-100.5 -295.5q227 309 424 483q346 302 665 302q18 0 36 -1q221 -12 315 -137q53 -72 53 -127q0 -47 -41 -70q-29 121 -127 186q-90 59 -217 68q-17 1 -35 1q-309 0 -620 -302q-193 -186 -398 -492q-23 -31 -60.5 -86t-90.5 -137l-2 -4 q-8 -14 -25 -14h-88q-31 0 -20 30l121 349q37 106 73.5 190t71.5 148q-197 -197 -530 -697l-5 -6q-12 -14 -24 -14h-88q-31 0 -21 30q133 465 308 902q-4 -2 -19 -2h-13q-46 0 -126 11q-92 13 -230 42q-46 10 -93 10q-20 0 -40 -2q-104 -10 -168 -53q-80 -51 -84 -146 q-2 -76 66 -116q42 -25 100 -25q18 0 37 2q61 8 110.5 51t63.5 103q2 10 2 18q0 33 -39 37h-5q-40 0 -64 -31q-14 -16 -15 -30q-19 9 -19 31q0 11 5 26q12 34 52 58q30 18 58 18q10 0 19 -2q86 -16 86 -93q0 -10 -1 -19t-3 -19q-20 -88 -89 -149.5t-161 -74.5q-20 -2 -39 -2 q-60 0 -116 23q-84 33 -123 98q-30 49 -30 98q0 9 1 17z" />
<glyph unicode="X" horiz-adv-x="1189" d="M-4 672q0 131 100 301q76 129 221 260q260 233 490 233q129 0 208 -71.5t87 -200.5q135 147 334 225q68 27 139 27q131 0 182 -76q-49 16 -104 16q-100 0 -211 -49q-221 -96 -383 -411q-96 -186 -96 -301q0 -68 28 -129q61 -131 189 -181q-9 -1 -18 -1q-43 0 -83 16 q-205 76 -215 315q-250 -270 -549 -293q-29 -2 -55 -2q-191 0 -240 115q78 -47 191 -47q293 0 563 325q113 133 174 295q37 94 37 166q0 125 -113 170q-30 11 -64 11q-17 0 -36 -3q-152 -23 -330 -176q-127 -109 -235 -274q-35 -53 -60.5 -104.5t-42.5 -102.5 q-13 -40 -13 -72q0 -35 15 -61q29 -35 80 -35q98 0 215 92q166 135 187 299q2 27 0 56q-4 12 -2 16q4 4 8 4q8 -2 8 -6q61 -78 62 -154q0 -66 -41 -137q-115 -203 -316 -258q-43 -11 -87 -11q-30 0 -60 5q-72 12 -118 72.5t-46 136.5z" />
<glyph unicode="Y" horiz-adv-x="1263" d="M0 197v7q0 82 43 154q45 74 121 113q49 27 112 33q14 1 28 1q48 0 93 -16q47 -10 90 -67q43 -59 43 -105q0 -29 -14 -55q-74 161 -205 161q-11 0 -22 -1q-88 -8 -150 -74q-57 -66 -57 -149v-6q0 -55 29 -103q80 -127 251 -127q248 0 541 393q-61 -29 -110 -32h-6 q-101 0 -152 71q-25 33 -25 90q0 106 111 271q29 41 74 111.5t110 172.5q49 85 49 185v8q-2 68 -55 133q-76 90 -184 113q-10 2 -19.5 3t-19.5 1q-123 0 -180 -88q-18 -27 -23 -60q-1 -7 -1 -14q0 -65 52 -111q47 -43 125 -59q16 -4 32.5 -5t33.5 -3q-47 -25 -97 -25h-14 q-55 2 -121 45q-61 39 -80 94q-12 39 -12 78v11q12 141 187 186q20 4 42 7q14 2 28 2q9 0 18 -1q57 -4 59 -2q147 -29 246 -143q89 -103 89 -235q0 -13 -1 -27q-10 -96 -64 -211q-18 -37 -45.5 -86.5t-66.5 -108.5q-20 -31 -50 -77t-69 -109q-38 -65 -38 -97q0 -4 1 -8 q10 -31 47 -33q9 -1 18 -1q81 0 183 96q82 76 147 178q33 47 83 127t122 190q25 45 67 115t101 168q31 51 98 90q47 29 75 46.5t36 25.5q33 1 37 -15q4 -23 -94 -168l-217 -342q-18 -29 -75 -112.5t-155 -220.5l-84 -117q-68 -94 -126 -169t-107 -134q-241 -282 -495 -282 q-46 0 -93 9q-78 14 -148 62q-45 29 -104 102q-39 63 -43 146z" />
<glyph unicode="Z" horiz-adv-x="935" d="M57 473q23 14 47.5 22.5t51.5 12.5q20 4 45 4q17 0 37 -2q115 -10 188 -18q59 43 121 104q41 41 108.5 111.5t159.5 175.5q199 223 258 282q39 41 73 73t62 58q-59 10 -133 23.5t-166 30.5q-46 9 -89 9q-14 0 -29 -1q-88 -8 -156 -49q-80 -51 -88 -129q-1 -10 -1 -20 q0 -57 50 -85q40 -22 90 -23q15 0 31 3q55 6 103 45t67 92q6 18 0 29q-8 16 -31 20h-8q-32 0 -55 -29q-12 -14 -17 -26q-23 14 -8 51q14 33 51 53q28 15 55 14q8 0 17 -1q70 -14 70 -72q0 -23 -9 -45q-25 -78 -93 -134.5t-148 -66.5q-18 -3 -37 -3q-52 0 -101 22 q-72 29 -102 90q-17 31 -17 68q0 16 3 34q10 51 53 109q117 159 388 159h30q20 -2 75.5 -8t149.5 -18q86 -12 155 -12q39 0 72 4q6 0 66 6q18 8 45 10q41 6 63 0q31 -10 19 -12q-86 -51 -199.5 -155.5t-255.5 -266.5q-162 -184 -270.5 -300t-161.5 -165q-29 -25 -55.5 -46.5 t-52.5 -41.5q72 -23 213 -82q313 -133 501 -174l2 -2q156 -28 275 -28q38 0 73 3q35 4 70 9t74 14q111 25 125 51q0 8 10 8q6 0 12 -12q2 -3 2 -7q0 -7 -8 -16q-66 -72 -215 -110q-113 -31 -242 -37q-38 -2 -74 -2q-297 0 -515 116q-45 25 -112 62t-157 88q-20 10 -53 24.5 t-78 30.5q-151 -91 -296 -91q-15 0 -29 1q-27 2 -48.5 6t-37.5 8q-70 24 -70 73q0 47 57 81zM70 397q0 -31 51 -39q16 -2 31 -2t30 2q98 16 158 58l-2 -2q10 4 22 18q-41 10 -79.5 17.5t-77.5 11.5q-12 1 -24.5 1t-24.5 -1q-84 -10 -84 -64z" />
<glyph unicode="[" horiz-adv-x="208" d="M-2560 -129q10 37 59 100q53 68 56 125q4 43 -2 66q8 4 20 8t33 8q276 61 625 62q127 0 249 -7q45 -2 194.5 -16t407.5 -43q106 -10 200.5 -16t178.5 -6q438 0 617 184q68 70 67 104q0 18 -18 29q-12 6 -43 -7t-45 -28q-29 -29 -41 -8l-10 16q-6 16 12 35q66 59 127 60 q82 0 82 -88q0 -74 -113 -189q-170 -178 -420 -225q-72 -14 -163 -20.5t-201 -6.5q-63 0 -138 2t-163 6l-260 13q-391 8 -602 -6q-168 -12 -302.5 -33t-236.5 -49q-94 -27 -170 -70z" />
<glyph unicode="]" horiz-adv-x="208" d="M-2560 -129q10 37 59 100q53 68 56 125q4 43 -2 66q8 4 20 8t33 8q276 61 625 62q127 0 249 -7q45 -2 194.5 -16t407.5 -43q106 -10 200.5 -16t178.5 -6q438 0 617 184q68 70 67 104q0 18 -18 29q-12 6 -43 -7t-45 -28q-29 -29 -41 -8l-10 16q-6 16 12 35q66 59 127 60 q82 0 82 -88q0 -74 -113 -189q-170 -178 -420 -225q-72 -14 -163 -20.5t-201 -6.5q-63 0 -138 2t-163 6l-260 13q-391 8 -602 -6q-168 -12 -302.5 -33t-236.5 -49q-94 -27 -170 -70z" />
<glyph unicode="a" horiz-adv-x="509" d="M2 428q-2 15 -2 31q0 121 125 250q92 96 176 96q100 0 98 -123q33 57 45 70q26 28 58 28q8 0 16 -2q29 -4 25 -22q-2 -10 -37 -69.5t-100 -170.5q-68 -111 -64 -110q5 -2 12 -2q25 0 74 28l84 47q39 9 39 -20t-86 -78q-96 -54 -177 -54q-13 0 -26 1q-29 2 -29 33 q0 9 3 22q-72 -59 -132 -59q-88 0 -102 104zM113 496q0 -84 67 -84q49 0 103 61l20 39l35 63q2 4 2 6.5t2 4.5q7 22 7 45q0 19 -5 39q-10 49 -55 49q-63 0 -121 -80q-55 -78 -55 -143z" />
<glyph unicode="b" horiz-adv-x="509" d="M-72 330q-4 8 97 182l223 379q16 33 42.5 73t61.5 91q15 15 43 15q8 0 17 -1q31 -6 26 -22q-2 -18 -57 -109l-115 -188q70 51 129 51q80 0 86 -96q0 -8 1 -15q0 -153 -152 -287q3 -1 8 -1q25 0 78 30l84 47q37 9 37 -20t-86 -78q-94 -53 -250 -59h-13q-19 0 -38 4 q-71 4 -71 89q0 11 1 23l-12 -20l-23 -37q-19 -33 -35 -49q-11 -11 -37 -10q-12 0 -26 2q-12 0 -19 6zM119 459q0 -47 45 -47q51 0 115 57q88 76 98 176q1 7 1 14q0 56 -48 56q-63 0 -135 -84l-64 -105q-12 -35 -12 -67z" />
<glyph unicode="c" horiz-adv-x="430" d="M-2 428q-2 14 -2 28q0 121 125 253q90 96 178 96q31 0 53.5 -12.5t36.5 -33t17.5 -46t-7.5 -49.5q-14 -35 -53 -63t-76 -32q55 43 64 82q3 12 3 22q0 46 -52 46q-51 0 -111 -72q-66 -84 -65 -151q0 -88 98 -95h12q84 0 213 78q37 9 37 -20q0 -18 -12 -31 q-20 -14 -39 -25.5t-35 -21.5q-102 -55 -227 -62h-14q-128 0 -144 109z" />
<glyph unicode="d" horiz-adv-x="524" d="M2 428q-2 15 -2 31q0 121 125 250q92 96 176 96q98 0 98 -109q0 -15 -2 -32l135 225q20 35 46 76t59 88q14 13 40 13q9 0 19 -1q31 -7 27 -23q-2 -18 -57 -108l-256 -418q-68 -111 -64 -110q5 -2 12 -2q25 0 74 28l84 47q33 8 39 -20q0 -29 -86 -78q-96 -54 -177 -54 q-13 0 -26 1q-29 2 -29 33q0 9 3 22v4q-70 -63 -136 -63q-88 0 -102 104zM113 496q0 -84 67 -84q59 0 117 82l10 18q8 12 16.5 30.5t18.5 43.5q7 22 7 45q0 19 -5 39q-10 49 -55 49q-63 0 -121 -80q-55 -78 -55 -143z" />
<glyph unicode="e" horiz-adv-x="432" d="M-4 428q-2 13 -2 26q0 82 65 179q23 35 51.5 64.5t63.5 56.5q67 52 123 52q15 0 29 -3q42 -10 64 -45q15 -25 16 -54q0 -12 -3 -26q-8 -43 -36 -84q-72 -94 -181 -102q-8 -1 -15 -1q-42 0 -62 21q-1 -9 -1 -17q0 -86 99 -94q7 -1 14 0q74 0 172 58q18 12 37 20 q37 9 37 -20q2 -27 -45 -56q-133 -78 -266 -84h-14q-130 0 -146 109zM158 541q3 0 7 -1q28 0 62 15q80 37 105 94v2q4 14 4 26q0 42 -53 42t-109 -70q-53 -69 -53 -91q0 -13 37 -17z" />
<glyph unicode="f" horiz-adv-x="241" d="M-281 -41q6 51 50 115l12 18l4 8l65 113q14 29 58.5 103.5t120.5 199.5l34 55l189 318q25 41 50.5 82t53.5 82q14 14 40 14q10 0 22 -2q24 -4 24 -19v-4q-2 -18 -57 -108l-182 -303l-135 -225q5 -2 12 -2q25 0 74 28l84 47q37 8 36 -20q0 -29 -88 -80q-92 -51 -168 -53 l-145 -244q-29 -39 -57 -100l-4 -21q68 27 147 135q80 106 80 178q0 18 -12 29q25 -2 32 -45q2 -9 2 -19q0 -57 -61 -145q-134 -192 -241 -192h-1q-40 0 -40 44q0 6 1 13z" />
<glyph unicode="g" horiz-adv-x="505" d="M-111 -45q0 68 50 158q43 78 99 133t155 96l12 20q-56 -38 -103 -38h-2q-90 0 -104 104q-1 12 -1 24q0 121 126 257q94 98 170 98q104 0 102 -123q29 45 60 80q20 20 59 14q31 -6 27 -22q-2 -18 -58 -109l-96 -153l-61 -103q43 2 184 88q37 9 37 -20q0 -18 -13 -31 q-74 -51 -122 -72q-41 -16 -76 -28.5t-62 -20.5l-112 -188q-12 -20 -22.5 -36.5t-28.5 -43.5q-33 -49 -35 -55l-51 -62q-43 -48 -80 -48q-7 0 -13 1q-41 10 -41 80zM-74 -18q-2 -8 -2 -14t2 -11q2 -6 6 -6h2q33 12 113 147l70 115l26 49q-82 -39 -141 -115q-63 -78 -76 -165 zM109 496q0 -84 67 -84q41 0 82 41q55 57 78 135q8 28 8 52q0 34 -16 58q-18 20 -45 21q-61 0 -119 -80q-55 -80 -55 -143z" />
<glyph unicode="h" horiz-adv-x="466" d="M-59 330q-2 3 -2 7q0 9 8 25q20 33 42.5 71t45.5 79q14 23 54 92.5t110 186.5q-61 10 -72 45q8 -2 15.5 -3.5t17.5 -1.5q33 0 67 9l31 51l76 127l31 49l36 61l15 21q57 78 107 78q8 0 16 -2q57 -12 57 -92q0 -49 -31 -111q-70 -135 -178 -186q-14 -8 -33.5 -15.5 t-42.5 -17.5l-39 -64q81 62 146 62h2q63 -6 63 -87v-12q-2 -66 -59 -155l-70 -101q-20 -27 -20 -38q0 -6 6 -7q14 0 92 48q20 14 43 24q4 2 12 2q25 0 21 -22q2 -8 -14 -31q-41 -41 -189 -96q-41 -10 -67 -10q-46 0 -45 28q0 32 75 137q86 119 97 160q3 15 3 26q0 44 -42 44 q-45 0 -119 -78l-150 -252q-17 -33 -35 -49q-12 -11 -38 -10q-11 0 -25 2q-16 0 -18 6zM354 877q41 16 78 42.5t64.5 60.5t45 71.5t17.5 78.5q0 10 -3 20q-2 8 -8 7h-3q-35 -10 -101 -131h-2q-4 -8 -16 -30.5t-35 -57.5z" />
<glyph unicode="i" horiz-adv-x="243" d="M-39 383q2 8 68 129l55 96q20 37 46 78t60 88q18 18 60 12q31 -6 26 -22q-4 -18 -145 -248q-68 -111 -63 -110q5 -2 13 -2q26 0 75 28l84 47q36 9 36 -20t-88 -78q-96 -54 -174 -54q-12 0 -24 1q-31 2 -31 35q0 9 2 20zM264 905q57 88 121 88h2q27 0 27 -28 q0 -25 -23 -60q-57 -88 -121 -88q-28 0 -28 27t22 61z" />
<glyph unicode="j" horiz-adv-x="239" d="M-377 -45q0 68 49 158q43 78 99.5 133t154.5 96l148 250q39 72 67.5 117t48.5 65q18 18 60 12q31 -6 26 -22q-2 -10 -16 -37t-41 -72l-35 -53l-127 -211q53 6 183 88q36 9 36 -20q0 -18 -12 -31q-35 -27 -65.5 -44t-57.5 -28q-72 -29 -135 -49l-112 -188l-23 -37l-29 -43 q-33 -49 -35 -55l-51 -62q-43 -48 -80 -48q-6 0 -12 1q-41 10 -41 80zM-340 -18q-2 -8 -2 -14t2 -11q2 -6 6 -6h2q33 12 113 147l69 115l27 49q-82 -39 -141 -115q-63 -78 -76 -165zM264 905q57 88 121 88h2q27 0 27 -28q0 -25 -23 -60q-57 -88 -121 -88q-28 0 -28 27t22 61 z" />
<glyph unicode="k" horiz-adv-x="471" d="M-66 330q-2 3 -2 7q0 9 9 25q20 33 42.5 71t45.5 79q14 23 54 92.5t110 186.5q-61 10 -72 45q8 -2 15 -3.5t18 -1.5q33 0 67 9l31 51l76 127l30 49l37 61l15 21q57 78 107 78q8 0 15 -2q58 -12 58 -92q0 -49 -31 -111q-70 -135 -178 -186q-14 -8 -33.5 -15.5t-42.5 -17.5 l-29 -47q71 45 117 45h4q96 -6 97 -86q0 -37 -25 -76q-41 -72 -98 -90q-10 -4 -11 -6q2 -2 9.5 -6.5t14.5 -10.5t11 -11t0 -7q0 -18 -26 -51q-27 -33 -27 -41q0 -6 8 -6q10 0 129 69q35 10 35 -20q0 -37 -80 -76q-23 -10 -50.5 -22.5t-61.5 -26.5q-39 -9 -65 -9 q-42 0 -50 23q-2 6 -2 12q0 23 26 60q23 29 33 45t12 20q4 12 5 13q0 4 -5.5 8t-27.5 4q-53 -2 -84 -3t-39 1l-53 -90l-21 -37q-23 -35 -38 -49q-10 -10 -34 -10q-11 0 -26 2q-16 0 -19 6zM154 555q219 11 219 115q0 43 -47 43q-55 0 -113 -62zM348 877q41 16 78 42.5 t64.5 60.5t45 71.5t17.5 78.5q0 10 -3 20q-2 8 -8 7h-3q-35 -10 -101 -131h-2q-4 -8 -16 -30.5t-35 -57.5z" />
<glyph unicode="l" horiz-adv-x="280" d="M-12 346q-10 13 -10 34q0 24 12 58q2 2 11 25.5t30 68.5q70 166 151 306q94 162 103 170q131 209 200 209q38 -1 38 -53q0 -15 -3 -34q-25 -133 -102 -274q-152 -270 -318 -393q-23 -41 -22 -49q0 -8 8 -11q5 -1 11 -1q32 0 104 34q33 16 53 25.5t29 13.5q37 8 36 -20 q2 -10 -12 -31q-143 -100 -262 -100q-41 0 -57 22zM139 561q35 29 75 75t81 109q59 90 100 168t62 146q8 23 11 38l5 25q0 8 -2 11q-55 -43 -274 -453q-16 -33 -31.5 -61.5t-26.5 -57.5z" />
<glyph unicode="m" horiz-adv-x="763" d="M-63 330q-2 3 -2 7q0 9 8 25l80 136l8 14l69 117q78 135 105 164q13 14 38 14q10 0 23 -2q29 -4 25 -23q-2 -14 -25 -51q6 4 15.5 11.5t23.5 17.5q66 45 123 45q76 0 76 -98q102 100 190 100q82 0 80 -98q-4 -70 -59 -158q-20 -33 -70 -100q-23 -33 -22 -41q0 -4 6 -4 q8 0 22 8q8 4 24.5 12t33 17.5t32 18.5t25.5 15q33 9 33 -20q0 -10 -15 -33q-43 -35 -190 -96q-40 -9 -66 -9q-42 0 -47 23q-1 3 -1 7q0 35 75 134q88 119 98 164q8 43 -8 60q-9 8 -23 8q-23 0 -57 -21q-61 -39 -129 -143l-98 -170q-25 -41 -37 -49q-14 -11 -43 -11 q-8 0 -18 1q-16 2 -19 6q-6 12 6 34q27 47 57.5 98.5t67.5 110.5q10 27 17.5 46.5t9.5 29.5q3 14 3 26q0 23 -13 34q-10 8 -24 8q-28 0 -75 -33q-27 -20 -47 -39.5t-35 -40.5q-16 -23 -32 -51q-8 -10 -20.5 -31.5t-31.5 -52.5l-30 -49l-21 -37q-23 -35 -38 -49 q-10 -10 -34 -10q-11 0 -26 2q-16 0 -18 6z" />
<glyph unicode="n" horiz-adv-x="481" d="M-59 330q-2 3 -2 7q0 9 8 25l80 136l8 14l69 117q78 135 105 164q13 14 38 14q10 0 23 -2q29 -4 25 -23q-4 -12 -12 -30q80 55 135 55q80 0 81 -93q0 -64 -61 -163l-71 -100q-20 -27 -21 -41q0 -4 6 -4q4 0 137 71q33 9 33 -20q0 -6 -16 -33q-41 -39 -189 -96 q-39 -7 -64 -7q-43 0 -48 21q-1 4 -1 8q0 37 75 133q88 119 98 164q3 15 3 26q0 44 -36 44q-59 0 -141 -99q-10 -16 -34 -54t-60 -97l-31 -49l-21 -37q-23 -35 -38 -49q-10 -10 -34 -10q-11 0 -26 2q-16 0 -18 6z" />
<glyph unicode="o" horiz-adv-x="473" d="M-14 436q0 137 149 281q94 88 185 88q19 0 38 -4q88 -18 88 -119q0 -123 -106 -250q16 -4 22 -4q27 0 56 16q10 8 25.5 16.5t35.5 18.5q37 9 37 -20t-86 -78q-44 -24 -98 -24q-11 0 -23 1q-23 0 -41 7q-49 -31 -94 -41q-28 -6 -53 -6q-41 0 -74 16q-61 31 -61 102z M111 494q0 -81 64 -81q7 0 15 1q-18 29 -20 51q-1 10 -1 19q0 61 56 104q6 -76 58 -123q53 53 73 121q9 29 9 56q0 15 -3 30q-10 47 -59 47q-55 0 -121 -72q-72 -84 -71 -153z" />
<glyph unicode="p" horiz-adv-x="493" d="M-238 68q-2 3 -2 7q0 9 9 27l88 150l223 379q39 66 64.5 106.5t39.5 55.5q15 15 44 15q8 0 18 -1q29 -4 24 -23q-2 -14 -18 -45q76 61 141 62q82 0 88 -96v-15q0 -156 -153 -287q3 -1 8 -1q24 0 78 30l84 47q37 9 37 -20q2 -20 -33 -47l-53 -31q-90 -53 -248 -59 q-25 -2 -54 4q-70 4 -70 94q0 10 1 22v11l-199 -332q-25 -41 -37 -49q-15 -12 -47 -12q-6 0 -14 1q-16 2 -19 7zM162 412q51 0 114 57q93 82 101 176q1 7 1 13q0 57 -50 57q-70 0 -140 -92q-71 -89 -71 -162q0 -49 45 -49z" />
<glyph unicode="q" horiz-adv-x="505" d="M-39 -66q4 14 9 27.5t12 28.5q53 109 69 110q20 33 66 113l88 149q-52 -38 -102 -38h-3q-88 0 -102 104q-2 15 -2 31q0 121 125 250q94 98 172 98q104 0 102 -123q16 29 28.5 46.5t18.5 23.5q24 27 53 27q9 0 19 -3q29 -4 25 -22q-10 -35 -138 -240l-77 -125q31 2 92 37 q23 12 46 24.5t46 26.5q33 9 39 -20q0 -27 -86 -78q-41 -25 -148 -62q26 -34 26 -76q0 -8 -1 -16q-10 -78 -94 -172q-70 -76 -152 -127q-47 -29 -90 -34q-9 -2 -16 -2q-13 0 -20 7t-7 20q0 7 2 15zM86 -18q0 -4 2 -5h3q11 0 42 25q59 51 105 119q51 77 51 145q0 27 -10 43 q-2 0 -5 -2l-110 -182q2 2 4 2q-82 -119 -82 -145zM109 496q0 -84 67 -84q37 0 82 41l80 135q7 23 7 46q0 18 -5 36q-12 49 -55 49q-63 0 -121 -80q-55 -78 -55 -143z" />
<glyph unicode="r" horiz-adv-x="475" d="M-45 446l10 11q25 23 55.5 55.5t69.5 77.5q14 20 23.5 38.5t17.5 39.5q29 78 35 114l6 41q2 2 8 35q10 18 27 21q4 1 8 1q19 0 30 -23q13 -28 7 -52l-6 -29q4 -4 26 -12l7 4q8 -2 33.5 -13.5t31.5 -13.5l49 -12q19 -11 19 -28q0 -12 -33 -70l-51 -88q-60 -107 -60 -141 q0 -8 4 -13t12 -5q19 0 62 26q18 10 131 104q14 8 29 2q10 -2 14 -12q6 -27 -69 -94l-45 -33q-96 -61 -138 -62q-80 0 -92 88q-1 4 -1 9q0 44 48 137l51 92l17 39q-23 10 -42.5 16t-33.5 11q-29 -59 -78 -150q-23 -37 -67 -84q-57 -61 -78 -63q-37 0 -37 30v6z" />
<glyph unicode="s" horiz-adv-x="444" d="M-59 446l12 11q20 18 51 52t72 81q57 88 76 192l16 78q14 18 31 19q25 0 34 -26t5 -48l-5 -12q6 -23 66 -33q10 0 16 -2q0 -6 -8 -17q-25 -40 -25 -83q0 -7 1 -15l32 -135q2 -16 3 -31.5t-1 -30.5q-2 -12 -4 -23t-6 -22q25 10 148 113q14 8 28 2q15 -5 15 -17 q0 -31 -70 -89q-23 -20 -56.5 -40t-74.5 -40q-59 -23 -141 -25h-6q-45 0 -87 23q-47 29 -49 69q0 23 9 45q-18 -18 -46 -32q-37 0 -37 29q0 3 1 7zM76 494q23 4 34 -10.5t5 -34.5q-4 -14 -19.5 -32t-15.5 -28q0 -14 18 -27q16 -10 36 -10t42 10q39 15 45 54q1 8 1 18 q0 30 -13 74l-29 151q0 -4 -6 -12q-31 -59 -98 -153z" />
<glyph unicode="t" horiz-adv-x="245" d="M-49 383q2 18 67 129l230 381h-92q-8 0 -2 12l8 19q6 12 16 12h92q45 84 78 117q14 13 40 13q9 0 20 -1q31 -6 26 -23q-2 -10 -16.5 -36.5t-40.5 -71.5l6 10q-4 0 -6 -8h137q6 0 6 -5q0 -3 -2 -7l-10 -19q-4 -12 -14 -12h-142l-231 -377q-68 -111 -64 -110q5 -2 12 -2 q25 0 74 28q29 16 50.5 27.5t35.5 19.5q37 8 37 -20q0 -29 -88 -78q-96 -54 -176 -54q-13 0 -25 1q-29 2 -29 33q0 10 3 22z" />
<glyph unicode="u" horiz-adv-x="540" d="M18 383q2 12 68 129l49 88q72 127 117 176q12 16 35 16q11 0 24 -4q31 -6 27 -22q-2 -20 -57 -107l-93 -143q-64 -99 -64 -109q0 -1 1 -1q4 -2 10 -2q38 0 146 65q49 29 108 131q20 35 48 79t67 97q14 14 39 14q10 0 22 -2q31 -6 27 -22q-2 -20 -57 -107l-93 -143 q-64 -99 -64 -109q0 -1 1 -1q5 -2 12 -2q25 0 74 28q29 16 50.5 27.5t35.5 19.5q37 8 37 -20q0 -29 -88 -78q-96 -54 -176 -54q-13 0 -25 1q-16 4 -25 16q-3 5 -3 13q0 24 30 67l-41 -35l-63 -31q-65 -32 -123 -32q-13 0 -27 2q-31 5 -31 37q0 8 2 18z" />
<glyph unicode="v" horiz-adv-x="413" d="M-29 358v6q0 30 19 60q10 16 34.5 60t65.5 116q39 70 117 176q12 16 35 16q11 0 24 -4q31 -6 27 -22q-2 -12 -16.5 -39t-40.5 -68l-93 -143q-64 -99 -64 -109q0 -1 1 -1q6 -2 20 -3q57 0 160 72q166 121 207 266q6 22 6 41.5t-6 36.5q-18 49 -16 51q7 50 47 50h8 q27 -2 39 -35q3 -9 3 -24q0 -20 -5 -52q-20 -143 -144 -285q-121 -135 -264 -178q-56 -19 -110 -19q-12 0 -23 1q-29 0 -31 30z" />
<glyph unicode="w" horiz-adv-x="665" d="M-37 377q8 27 37 80l145 241l43 70q21 22 51 22q9 0 19 -2q29 -4 25 -22q-2 -12 -16.5 -39t-41.5 -68l-92 -143q-62 -101 -61 -109v-1q4 -2 11 -2q24 0 77 24q98 45 131 82q4 10 32.5 58t79.5 137q29 49 43 63q22 22 51 22q9 0 19 -2q29 -4 25 -22q-2 -12 -16.5 -39 t-41.5 -68l-92 -143q-62 -101 -62 -109q0 -1 1 -1q6 -2 20 -3q55 0 158 72q166 119 209 266q5 17 5 34q0 23 -9 46q-14 37 -15 49q8 50 54 50h2q29 -4 41 -35q2 -4 2 -16q0 -20 -6 -60q-25 -147 -146 -285q-121 -135 -262 -178q-56 -19 -110 -19q-12 0 -23 1q-29 0 -31 30 q0 14 6 37q-33 -27 -78 -41q-81 -28 -131 -28q-13 0 -24 2q-32 5 -32 30q0 8 3 19z" />
<glyph unicode="x" horiz-adv-x="612" d="M-51 420q-2 4 -2 8q0 15 24 35q100 78 152 147q16 27 44 65t66 85q27 27 62 28q7 1 13 1q53 0 85 -44q20 -27 27 -143q141 63 162 152q4 16 8 30.5t8 24.5q20 25 45 25q41 0 41 -39q0 -12 -4 -27q-2 -16 -47 -68q-84 -96 -211 -153l4 -74q7 -71 41 -71q12 0 27 8 q37 20 86 65l36 31q25 4 29 2q14 -6 12 -39q-141 -143 -233 -143q-49 0 -78 41q-20 27 -27 135q-152 -63 -174 -158q-6 -29 -18 -55q-23 -23 -45 -23q-38 0 -38 39q0 11 3 25q6 23 45 67q82 100 225 160l-2 14q0 20 -2 27q-4 41 -14 76q-10 14 -27 10q-16 -4 -163 -176 q-27 -29 -55.5 -54.5t-61.5 -47.5q-10 -8 -23 -9q-10 0 -20 23z" />
<glyph unicode="y" horiz-adv-x="485" d="M-111 -45q0 66 50 158q45 80 101 134t150 95l33 53q-57 -45 -157 -63q-23 -4 -41.5 -5t-34.5 1q-32 5 -32 31q0 8 3 18q4 16 14.5 36.5t24.5 45.5q31 53 80 133t115 184q8 14 47 15q45 0 39 -25q-6 -29 -148 -250q-20 -33 -36.5 -60.5t-26.5 -49.5q6 -2 18 -3q33 0 98 35 q29 16 51.5 31.5t38.5 32.5q20 20 41 51q27 43 60 98.5t74 120.5q9 14 36 14q11 0 25 -2q25 -4 25 -18t-9 -27q-10 -31 -55 -102l-149 -246q63 16 176 88q37 9 37 -20q2 -25 -39 -51q-96 -59 -224 -99l-90 -147q-45 -76 -71.5 -119t-34.5 -53q-87 -116 -137 -116q-6 0 -11 1 q-41 10 -41 80zM-74 -18q-1 -10 -1 -17t1 -10q3 -5 6 -5l2 1q23 10 64 72q41 57 69.5 104t49.5 86l26 49q-80 -39 -141 -116.5t-76 -163.5z" />
<glyph unicode="z" horiz-adv-x="442" d="M-139 -80q18 160 186 322q82 80 160 120l12 21q6 20 -39 35q-31 4 -28 26q8 -3 17 -3q33 0 83 34q82 55 135 148q14 23 14 43q0 35 -37 35q-5 0 -10 -1q-43 -4 -106 -73l-137 -148q-80 -76 -183 -117l-30 -12q-23 -10 -23 0q0 -2 -6 8q-4 10 0 21q2 10 16 24 q27 12 52.5 25.5t50.5 28.5q49 33 143 133q53 57 92 94t64 57q85 65 148 65q7 0 14 -1q53 -6 67 -51q3 -12 3 -26q0 -26 -13 -56q-41 -102 -135 -178q-45 -39 -88 -56q29 -10 32 -32q8 4 44 21t100 52q37 8 37 -20q0 -29 -86 -78q-14 -8 -42 -19.5t-73 -27.5l-14 -27 q-53 -109 -117 -196l-82 -111q-102 -135 -175 -135q-9 0 -18 2q-29 8 -29 40q0 6 1 13zM-92 -76q0 -6 4 -6q47 29 219 293q35 54 41 70q-41 -25 -81 -61t-74.5 -77t-61.5 -87t-39 -89q-8 -25 -8 -43z" />
<glyph unicode="{" horiz-adv-x="208" d="M-2560 -129q10 37 59 100q53 68 56 125q4 43 -2 66q8 4 20 8t33 8q276 61 625 62q127 0 249 -7q45 -2 194.5 -16t407.5 -43q106 -10 200.5 -16t178.5 -6q438 0 617 184q68 70 67 104q0 18 -18 29q-12 6 -43 -7t-45 -28q-29 -29 -41 -8l-10 16q-6 16 12 35q66 59 127 60 q82 0 82 -88q0 -74 -113 -189q-170 -178 -420 -225q-72 -14 -163 -20.5t-201 -6.5q-63 0 -138 2t-163 6l-260 13q-391 8 -602 -6q-168 -12 -302.5 -33t-236.5 -49q-94 -27 -170 -70z" />
<glyph unicode="}" horiz-adv-x="208" d="M-2560 -129q10 37 59 100q53 68 56 125q4 43 -2 66q8 4 20 8t33 8q276 61 625 62q127 0 249 -7q45 -2 194.5 -16t407.5 -43q106 -10 200.5 -16t178.5 -6q438 0 617 184q68 70 67 104q0 18 -18 29q-12 6 -43 -7t-45 -28q-29 -29 -41 -8l-10 16q-6 16 12 35q66 59 127 60 q82 0 82 -88q0 -74 -113 -189q-170 -178 -420 -225q-72 -14 -163 -20.5t-201 -6.5q-63 0 -138 2t-163 6l-260 13q-391 8 -602 -6q-168 -12 -302.5 -33t-236.5 -49q-94 -27 -170 -70z" />
<glyph unicode="&#x2000;" horiz-adv-x="819" />
<glyph unicode="&#x2001;" horiz-adv-x="1638" />
<glyph unicode="&#x2002;" horiz-adv-x="819" />
<glyph unicode="&#x2003;" horiz-adv-x="1638" />
<glyph unicode="&#x2004;" horiz-adv-x="546" />
<glyph unicode="&#x2005;" horiz-adv-x="409" />
<glyph unicode="&#x2006;" horiz-adv-x="273" />
<glyph unicode="&#x2007;" horiz-adv-x="273" />
<glyph unicode="&#x2008;" horiz-adv-x="204" />
<glyph unicode="&#x2009;" horiz-adv-x="327" />
<glyph unicode="&#x200a;" horiz-adv-x="91" />
<glyph unicode="&#x202f;" horiz-adv-x="327" />
<glyph unicode="&#x205f;" horiz-adv-x="409" />
<glyph unicode="&#x25fc;" horiz-adv-x="829" d="M0 0v829h829v-829h-829z" />
</font>
</defs>
</svg>
